<svg width="45" height="45" viewBox="0 0 45 45" fill="none" xmlns="http://www.w3.org/2000/svg">
<mask id="mask0_435_236" style="mask-type:alpha" maskUnits="userSpaceOnUse" x="0" y="0" width="45" height="45">
<rect width="45" height="45" fill="#D9D9D9"/>
</mask>
<g mask="url(#mask0_435_236)">
<path d="M10.9687 32.0625C12.5624 30.8438 14.3437 29.8828 16.3124 29.1797C18.2812 28.4766 20.3437 28.125 22.4999 28.125C24.6562 28.125 26.7187 28.4766 28.6874 29.1797C30.6562 29.8828 32.4374 30.8438 34.0312 32.0625C35.1249 30.7812 35.9765 29.3281 36.5859 27.7031C37.1953 26.0781 37.4999 24.3438 37.4999 22.5C37.4999 18.3438 36.039 14.8047 33.1171 11.8828C30.1953 8.96094 26.6562 7.5 22.4999 7.5C18.3437 7.5 14.8046 8.96094 11.8828 11.8828C8.96088 14.8047 7.49994 18.3438 7.49994 22.5C7.49994 24.3438 7.80463 26.0781 8.414 27.7031C9.02338 29.3281 9.87494 30.7812 10.9687 32.0625ZM22.4999 24.375C20.6562 24.375 19.1015 23.7422 17.8359 22.4766C16.5703 21.2109 15.9374 19.6562 15.9374 17.8125C15.9374 15.9688 16.5703 14.4141 17.8359 13.1484C19.1015 11.8828 20.6562 11.25 22.4999 11.25C24.3437 11.25 25.8984 11.8828 27.164 13.1484C28.4296 14.4141 29.0624 15.9688 29.0624 17.8125C29.0624 19.6562 28.4296 21.2109 27.164 22.4766C25.8984 23.7422 24.3437 24.375 22.4999 24.375ZM22.4999 41.25C19.9062 41.25 17.4687 40.7578 15.1874 39.7734C12.9062 38.7891 10.9218 37.4531 9.23431 35.7656C7.54681 34.0781 6.21088 32.0938 5.2265 29.8125C4.24213 27.5313 3.74994 25.0938 3.74994 22.5C3.74994 19.9062 4.24213 17.4688 5.2265 15.1875C6.21088 12.9062 7.54681 10.9219 9.23431 9.23438C10.9218 7.54687 12.9062 6.21094 15.1874 5.22656C17.4687 4.24219 19.9062 3.75 22.4999 3.75C25.0937 3.75 27.5312 4.24219 29.8124 5.22656C32.0937 6.21094 34.0781 7.54687 35.7656 9.23438C37.4531 10.9219 38.789 12.9062 39.7734 15.1875C40.7578 17.4688 41.2499 19.9062 41.2499 22.5C41.2499 25.0938 40.7578 27.5313 39.7734 29.8125C38.789 32.0938 37.4531 34.0781 35.7656 35.7656C34.0781 37.4531 32.0937 38.7891 29.8124 39.7734C27.5312 40.7578 25.0937 41.25 22.4999 41.25ZM22.4999 37.5C24.1562 37.5 25.7187 37.2578 27.1874 36.7734C28.6562 36.2891 29.9999 35.5938 31.2187 34.6875C29.9999 33.7812 28.6562 33.0859 27.1874 32.6016C25.7187 32.1172 24.1562 31.875 22.4999 31.875C20.8437 31.875 19.2812 32.1172 17.8124 32.6016C16.3437 33.0859 14.9999 33.7812 13.7812 34.6875C14.9999 35.5938 16.3437 36.2891 17.8124 36.7734C19.2812 37.2578 20.8437 37.5 22.4999 37.5ZM22.4999 20.625C23.3124 20.625 23.9843 20.3594 24.5156 19.8281C25.0468 19.2969 25.3124 18.625 25.3124 17.8125C25.3124 17 25.0468 16.3281 24.5156 15.7969C23.9843 15.2656 23.3124 15 22.4999 15C21.6874 15 21.0156 15.2656 20.4843 15.7969C19.9531 16.3281 19.6874 17 19.6874 17.8125C19.6874 18.625 19.9531 19.2969 20.4843 19.8281C21.0156 20.3594 21.6874 20.625 22.4999 20.625Z" fill="white"/>
</g>
</svg>
