<svg width="392" height="180" viewBox="0 0 392 180" fill="none" xmlns="http://www.w3.org/2000/svg">
<path d="M64.8751 152.714C64.9501 152.849 64.9876 153.009 64.9876 153.195C64.9876 153.479 64.8892 153.723 64.6922 153.928C64.4906 154.137 64.228 154.242 63.9045 154.242C63.6982 154.242 63.513 154.195 63.3489 154.102C63.1895 154.005 63.0629 153.863 62.9691 153.677C62.6081 152.979 62.2892 152.107 62.0126 151.06C61.736 150.018 61.4992 148.855 61.3023 147.571C61.1006 146.292 60.9389 144.913 60.817 143.434C60.6951 141.954 60.5943 140.424 60.5146 138.842C59.0939 139.029 57.495 139.236 55.718 139.463C53.9456 139.691 51.9201 139.954 49.6414 140.252C48.0425 140.48 46.4179 140.678 44.7675 140.845C40.707 145.236 36.4308 148.567 31.939 150.837C27.4472 153.107 22.9414 154.242 18.4214 154.242C16.4099 154.242 14.6681 154.049 13.1958 153.663C11.7282 153.277 10.5139 152.844 9.55267 152.365C8.59617 151.881 7.87409 151.432 7.38646 151.018C6.90352 150.604 6.6433 150.379 6.60579 150.341C6.41356 150.155 6.31741 149.911 6.31741 149.609C6.31741 149.306 6.42292 149.051 6.63391 148.841C6.84022 148.637 7.08637 148.534 7.37238 148.534C7.6959 148.534 7.96317 148.648 8.17416 148.876C8.21167 148.913 8.4391 149.106 8.8564 149.455C9.2737 149.799 9.89493 150.169 10.7201 150.565C11.5454 150.965 12.5956 151.323 13.871 151.639C15.1416 151.96 16.6491 152.121 18.3933 152.121C20.7892 152.121 23.0773 151.802 25.2576 151.165C27.4425 150.523 29.5079 149.688 31.4537 148.66C33.3996 147.632 35.2118 146.46 36.8904 145.143C38.5736 143.827 40.0975 142.489 41.4619 141.131C40.1162 141.243 38.7776 141.326 37.446 141.382C36.1191 141.443 34.8109 141.473 33.5215 141.473C30.9755 141.473 28.5538 141.331 26.2563 141.047C23.9588 140.764 21.9356 140.287 20.1867 139.617C18.4425 138.952 17.0523 138.063 16.0161 136.952C14.9846 135.84 14.4688 134.454 14.4688 132.793C14.4688 132.039 14.6235 131.286 14.933 130.532C15.2471 129.779 15.6222 129.097 16.0583 128.488C16.4943 127.874 16.9515 127.374 17.4297 126.988C17.9033 126.602 18.3112 126.408 18.6535 126.408C18.9208 126.408 19.1669 126.504 19.392 126.695C19.6217 126.881 19.7366 127.134 19.7366 127.455C19.7366 127.627 19.6968 127.792 19.617 127.951C19.542 128.109 19.4295 128.237 19.2794 128.334C19.2419 128.372 19.0802 128.502 18.7941 128.725C18.5081 128.953 18.2034 129.26 17.8798 129.646C17.561 130.032 17.268 130.493 17.0007 131.028C16.7335 131.567 16.5998 132.146 16.5998 132.765C16.5998 133.84 16.9749 134.786 17.7251 135.605C18.4753 136.424 19.5678 137.112 21.0025 137.67C22.4373 138.224 24.1979 138.642 26.2844 138.926C28.3709 139.21 30.7528 139.352 33.43 139.352C34.9679 139.352 36.5926 139.305 38.304 139.212C40.0107 139.115 41.8135 138.973 43.7125 138.787C44.6268 137.787 45.4356 136.845 46.1389 135.961C46.8375 135.077 47.4353 134.286 47.9324 133.588C48.7482 132.439 49.6015 131.214 50.4924 129.911C51.3832 128.613 52.2718 127.295 53.1579 125.955C54.0394 124.62 54.9022 123.297 55.7461 121.985C56.5901 120.678 57.3825 119.445 58.1233 118.287C58.8641 117.128 59.5299 116.072 60.1207 115.119C60.7068 114.17 61.1897 113.384 61.5695 112.76C61.6867 112.253 61.8579 111.788 62.083 111.365C62.3127 110.942 62.6831 110.73 63.1942 110.73C63.4802 110.73 63.7568 110.846 64.0241 111.079C64.2866 111.316 64.418 111.614 64.418 111.972C64.418 112.237 64.3242 112.519 64.1366 112.816C63.9444 113.119 63.7639 113.374 63.5951 113.584C63.5388 113.942 63.4474 114.705 63.3208 115.872C63.1989 117.04 63.077 118.466 62.9551 120.15C62.8285 121.838 62.723 123.694 62.6386 125.718C62.5542 127.741 62.512 129.79 62.512 131.865V134.154C62.512 134.907 62.5307 135.67 62.5683 136.442C65.4143 136.084 67.4938 135.833 68.8066 135.689C70.1148 135.549 70.8063 135.479 70.8814 135.479C71.1299 135.479 71.3737 135.579 71.6128 135.779C71.8473 135.975 71.9645 136.233 71.9645 136.554C71.9645 136.819 71.8754 137.049 71.6972 137.245C71.5144 137.445 71.2823 137.563 71.0009 137.6C70.6587 137.638 70.2601 137.684 69.8053 137.74C69.3458 137.796 68.7855 137.861 68.1244 137.935C67.4586 138.014 66.6802 138.105 65.7894 138.207C64.8938 138.31 63.8483 138.438 62.6526 138.591C62.7089 140.136 62.8003 141.617 62.9269 143.036C63.0488 144.459 63.1989 145.783 63.377 147.006C63.5599 148.23 63.7756 149.332 64.0241 150.314C64.2679 151.295 64.5516 152.095 64.8751 152.714ZM49.353 138.138C51.5942 137.835 53.6315 137.566 55.4648 137.328C57.2934 137.096 58.9485 136.884 60.4302 136.693C60.4114 135.884 60.3973 135.075 60.388 134.265C60.3786 133.456 60.3739 132.637 60.3739 131.809C60.3739 129.153 60.4208 126.613 60.5146 124.19C60.613 121.771 60.7467 119.666 60.9154 117.875C60.1559 119.061 59.3166 120.375 58.3976 121.817C57.4739 123.259 56.5198 124.729 55.5351 126.227C54.5458 127.725 53.5495 129.209 52.5461 130.679C51.538 132.149 50.5791 133.523 49.6695 134.802C49.21 135.444 48.7435 136.065 48.2699 136.665C47.7964 137.27 47.3228 137.863 46.8492 138.445C47.2665 138.408 47.6791 138.361 48.0871 138.305C48.495 138.249 48.917 138.194 49.353 138.138ZM85.2641 157.04C85.3813 158.566 85.4399 160.391 85.4399 162.517C85.4399 164.797 85.2969 166.892 85.0109 168.804C84.7249 170.716 84.3076 172.365 83.759 173.751C83.2057 175.137 82.5212 176.216 81.7053 176.989C80.8895 177.761 79.9494 178.147 78.885 178.147C78.3552 178.147 77.8535 178.024 77.38 177.777C76.9017 177.531 76.4891 177.182 76.1421 176.73C75.7905 176.279 75.5139 175.742 75.3122 175.119C75.1153 174.5 75.0168 173.805 75.0168 173.032C75.0168 171.883 75.1528 170.667 75.4248 169.383C75.7014 168.104 76.1538 166.767 76.7821 165.371C77.4057 163.98 78.231 162.527 79.2578 161.01C80.2846 159.494 81.5483 157.914 83.0487 156.272C82.969 155.463 82.8682 154.712 82.7462 154.019C82.6243 153.321 82.4672 152.716 82.275 152.204C82.0874 151.697 81.8647 151.302 81.6068 151.018C81.349 150.739 81.0395 150.6 80.6785 150.6C80.566 150.6 80.4347 150.618 80.2847 150.655C79.8486 151.162 79.4547 151.558 79.1031 151.842C78.7514 152.121 78.4326 152.337 78.1466 152.491C77.8606 152.639 77.6191 152.732 77.4222 152.77C77.2206 152.807 77.0729 152.825 76.9791 152.825C76.6556 152.825 76.3461 152.737 76.0507 152.56C75.76 152.384 75.6147 152.049 75.6147 151.556C75.6147 151.388 75.6756 151.172 75.7975 150.907C75.9194 150.641 76.1234 150.365 76.4094 150.076C76.6954 149.783 77.0705 149.509 77.5347 149.253C77.9989 149.002 78.5639 148.809 79.2297 148.674C80.4816 147.339 81.4592 146.111 82.1625 144.99C82.8658 143.869 83.2175 142.817 83.2175 141.836C83.2175 140.989 82.9502 140.312 82.4157 139.805C81.8858 139.294 81.213 139.038 80.3972 139.038C79.2578 139.038 78.1185 139.566 76.9791 140.622C75.8397 141.678 74.8152 143.138 73.9056 145.004C73.6946 145.418 73.3617 145.625 72.9069 145.625C72.5834 145.625 72.3279 145.511 72.1403 145.283C71.9481 145.059 71.8519 144.815 71.8519 144.55C71.8519 144.383 71.8895 144.231 71.9645 144.097C73.0851 141.817 74.3768 140.047 75.8397 138.787C77.3026 137.526 78.8311 136.896 80.4253 136.896C81.0723 136.896 81.6936 137.007 82.2891 137.231C82.8892 137.459 83.4167 137.784 83.8715 138.207C84.3263 138.631 84.6874 139.149 84.9546 139.763C85.2219 140.373 85.3555 141.073 85.3555 141.864C85.3555 142.524 85.2641 143.162 85.0812 143.776C84.903 144.385 84.6616 144.978 84.3568 145.555C84.052 146.127 83.7004 146.678 83.3018 147.209C82.9033 147.734 82.4954 148.241 82.0781 148.73C82.5892 148.958 83.0111 149.279 83.344 149.693C83.6769 150.107 83.9536 150.567 84.1739 151.074C84.3896 151.586 84.5537 152.114 84.6663 152.658C84.7835 153.207 84.8796 153.735 84.9546 154.242C85.6767 153.47 86.4269 152.651 87.2052 151.786C87.9835 150.916 88.7338 150.039 89.4558 149.155C90.1779 148.271 90.8367 147.399 91.4321 146.539C92.0323 145.683 92.5035 144.878 92.8458 144.124C92.9396 143.92 93.0708 143.764 93.2396 143.657C93.4131 143.555 93.603 143.503 93.8093 143.503C94.1328 143.503 94.3954 143.613 94.597 143.831C94.7939 144.045 94.8924 144.285 94.8924 144.55C94.8924 144.699 94.8643 144.841 94.808 144.976C94.3907 145.915 93.8023 146.927 93.0427 148.011C92.2831 149.095 91.4579 150.179 90.5671 151.262C89.6715 152.346 88.7595 153.386 87.8312 154.381C86.8981 155.382 86.0424 156.268 85.2641 157.04ZM83.2456 159.301C82.0499 160.752 81.063 162.117 80.2847 163.396C79.5063 164.676 78.8851 165.88 78.4209 167.011C77.952 168.141 77.6238 169.192 77.4362 170.165C77.244 171.132 77.1479 172.021 77.1479 172.83C77.1479 173.793 77.319 174.565 77.6613 175.147C78.0036 175.733 78.4209 176.026 78.9132 176.026C79.579 176.026 80.1838 175.686 80.7277 175.007C81.2669 174.328 81.7264 173.4 82.1062 172.223C82.486 171.046 82.779 169.658 82.9853 168.057C83.1963 166.457 83.3018 164.734 83.3018 162.887C83.3018 162.399 83.2971 161.847 83.2878 161.233C83.2784 160.624 83.2643 159.98 83.2456 159.301Z" fill="#147506"/>
<path d="M106.202 157.04C106.314 158.566 106.37 160.391 106.37 162.517C106.37 164.797 106.227 166.892 105.941 168.804C105.66 170.716 105.243 172.365 104.689 173.751C104.141 175.137 103.459 176.216 102.643 176.989C101.822 177.761 100.882 178.147 99.8226 178.147C99.2881 178.147 98.784 178.024 98.3105 177.777C97.8369 177.531 97.4243 177.182 97.0727 176.73C96.721 176.279 96.4444 175.742 96.2428 175.119C96.0458 174.5 95.9473 173.805 95.9473 173.032C95.9473 171.883 96.0857 170.667 96.3623 169.383C96.6343 168.104 97.0844 166.767 97.7127 165.371C98.3409 163.98 99.1662 162.527 100.188 161.01C101.215 159.494 102.479 157.914 103.979 156.272C103.904 155.463 103.803 154.712 103.677 154.019C103.555 153.321 103.4 152.716 103.213 152.204C103.02 151.697 102.795 151.302 102.537 151.018C102.284 150.739 101.977 150.6 101.616 150.6C101.503 150.6 101.37 150.618 101.215 150.655C100.779 151.162 100.385 151.558 100.034 151.842C99.6819 152.121 99.3631 152.337 99.0771 152.49C98.7958 152.639 98.5543 152.732 98.3527 152.77C98.1558 152.807 98.0081 152.825 97.9096 152.825C97.5908 152.825 97.2837 152.737 96.9883 152.56C96.6929 152.384 96.5452 152.049 96.5452 151.556C96.5452 151.388 96.6061 151.172 96.728 150.907C96.8546 150.641 97.0586 150.365 97.3399 150.076C97.6259 149.783 98.001 149.509 98.4652 149.253C98.9341 149.002 99.4991 148.809 100.16 148.674C101.417 147.339 102.394 146.111 103.093 144.99C103.796 143.869 104.148 142.817 104.148 141.836C104.148 140.989 103.883 140.312 103.353 139.805C102.819 139.294 102.144 139.038 101.328 139.038C100.188 139.038 99.049 139.566 97.9096 140.622C96.7702 141.678 95.7458 143.138 94.8361 145.004C94.6251 145.418 94.2922 145.625 93.8374 145.625C93.5139 145.625 93.2584 145.511 93.0708 145.283C92.8786 145.059 92.7824 144.815 92.7824 144.55C92.7824 144.383 92.8223 144.231 92.902 144.097C94.0226 141.817 95.312 140.047 96.7702 138.787C98.2331 137.526 99.7616 136.896 101.356 136.896C102.003 136.896 102.626 137.007 103.227 137.231C103.822 137.459 104.347 137.784 104.802 138.207C105.262 138.631 105.623 139.149 105.885 139.763C106.152 140.373 106.286 141.073 106.286 141.864C106.286 142.524 106.195 143.162 106.012 143.776C105.834 144.385 105.592 144.978 105.287 145.555C104.983 146.127 104.631 146.678 104.232 147.208C103.834 147.734 103.426 148.241 103.009 148.73C103.524 148.958 103.946 149.279 104.275 149.693C104.607 150.107 104.884 150.567 105.104 151.074C105.32 151.586 105.487 152.114 105.604 152.658C105.716 153.207 105.81 153.735 105.885 154.242C106.607 153.47 107.357 152.651 108.136 151.786C108.914 150.916 109.664 150.039 110.386 149.155C111.108 148.271 111.767 147.399 112.363 146.539C112.963 145.683 113.434 144.878 113.776 144.124C113.87 143.92 114.004 143.764 114.177 143.657C114.346 143.555 114.536 143.503 114.747 143.503C115.066 143.503 115.326 143.613 115.528 143.831C115.724 144.045 115.823 144.285 115.823 144.55C115.823 144.699 115.795 144.841 115.739 144.976C115.321 145.915 114.733 146.927 113.973 148.011C113.214 149.095 112.388 150.179 111.498 151.262C110.607 152.346 109.695 153.386 108.762 154.381C107.833 155.382 106.98 156.268 106.202 157.04ZM104.176 159.301C102.98 160.752 101.993 162.117 101.215 163.396C100.437 164.676 99.8156 165.88 99.3514 167.011C98.8872 168.141 98.559 169.192 98.3667 170.165C98.1792 171.132 98.0854 172.021 98.0854 172.83C98.0854 173.793 98.2566 174.565 98.5988 175.147C98.9364 175.733 99.3537 176.026 99.8507 176.026C100.512 176.026 101.114 175.686 101.658 175.007C102.197 174.328 102.657 173.4 103.037 172.223C103.417 171.046 103.712 169.658 103.923 168.057C104.129 166.457 104.232 164.734 104.232 162.887C104.232 162.399 104.228 161.847 104.218 161.233C104.209 160.624 104.195 159.98 104.176 159.301Z" fill="#147506"/>
<path d="M123.236 149.693C122.575 150.767 121.801 151.614 120.915 152.232C120.033 152.856 119.147 153.167 118.256 153.167C117.534 153.167 116.887 153.035 116.315 152.77C115.748 152.509 115.256 152.137 114.838 151.653C114.421 151.174 114.102 150.595 113.882 149.916C113.666 149.241 113.558 148.478 113.558 147.627C113.558 146.311 113.685 145.143 113.938 144.124C114.196 143.11 114.477 142.259 114.782 141.571C115.082 140.882 115.366 140.359 115.633 140.001L116.034 139.463C116.128 139.352 116.245 139.268 116.386 139.212C116.531 139.152 116.679 139.122 116.829 139.122C117.133 139.122 117.387 139.231 117.588 139.449C117.785 139.668 117.884 139.917 117.884 140.196C117.884 140.312 117.86 140.426 117.813 140.538C117.766 140.65 117.715 140.764 117.659 140.88L117.201 141.654C116.99 142.003 116.772 142.459 116.547 143.022C116.318 143.589 116.118 144.255 115.95 145.018C115.776 145.78 115.689 146.65 115.689 147.627C115.689 148.739 115.912 149.583 116.357 150.16C116.808 150.732 117.441 151.018 118.256 151.018C118.599 151.018 118.993 150.911 119.438 150.697C119.883 150.479 120.319 150.144 120.746 149.693C121.173 149.241 121.548 148.667 121.871 147.969C122.195 147.271 122.404 146.453 122.497 145.513L122.926 140.65C122.964 140.366 123.086 140.131 123.292 139.945C123.503 139.754 123.752 139.659 124.038 139.659C124.361 139.659 124.617 139.777 124.804 140.015C124.996 140.252 125.093 140.519 125.093 140.817L124.72 145.513C124.682 145.908 124.696 146.425 124.762 147.062C124.828 147.704 124.966 148.337 125.177 148.96C125.383 149.579 125.695 150.109 126.112 150.551C126.53 150.997 127.081 151.221 127.765 151.221C128.257 151.221 128.743 151.093 129.221 150.837C129.695 150.581 130.149 150.246 130.585 149.832C131.021 149.418 131.425 148.953 131.795 148.437C132.166 147.916 132.508 147.392 132.822 146.867C133.136 146.341 133.406 145.836 133.631 145.352C133.861 144.873 134.05 144.464 134.2 144.124C134.299 143.92 134.433 143.759 134.601 143.643C134.77 143.531 134.96 143.476 135.171 143.476C135.513 143.476 135.778 143.59 135.966 143.817C136.158 144.041 136.254 144.285 136.254 144.55C136.254 144.699 136.226 144.841 136.17 144.976C136.095 145.125 135.947 145.439 135.727 145.918C135.506 146.401 135.223 146.948 134.876 147.557C134.524 148.171 134.1 148.818 133.603 149.497C133.11 150.172 132.559 150.797 131.95 151.374C131.345 151.946 130.686 152.416 129.974 152.784C129.261 153.151 128.497 153.335 127.681 153.335C126.56 153.335 125.629 153.021 124.889 152.393C124.148 151.76 123.597 150.86 123.236 149.693Z" fill="#147506"/>
<path d="M137.189 141.243C137.11 141.754 137.014 142.231 136.901 142.673C136.789 143.115 136.678 143.501 136.571 143.831C136.467 144.162 136.378 144.429 136.303 144.634C136.228 144.843 136.181 144.957 136.163 144.976C135.97 145.408 135.638 145.625 135.164 145.625C134.897 145.625 134.651 145.525 134.425 145.325C134.196 145.129 134.081 144.88 134.081 144.578C134.081 144.466 134.1 144.383 134.137 144.327C134.175 144.266 134.233 144.152 134.313 143.985C134.388 143.817 134.482 143.534 134.594 143.134C134.707 142.738 134.85 142.127 135.023 141.299C134.7 141.299 134.367 141.289 134.025 141.271C133.682 141.252 133.363 141.187 133.068 141.075C132.777 140.964 132.536 140.785 132.344 140.538C132.156 140.291 132.062 139.952 132.062 139.519C132.062 139.198 132.151 138.766 132.33 138.221C132.513 137.673 132.754 137.135 133.054 136.61C133.359 136.084 133.701 135.628 134.081 135.242C134.461 134.856 134.84 134.663 135.22 134.663C135.656 134.663 136.013 134.823 136.289 135.144C136.566 135.461 136.779 135.851 136.929 136.317C137.079 136.777 137.189 137.261 137.26 137.768C137.325 138.275 137.358 138.717 137.358 139.094C137.682 139.094 137.998 139.089 138.308 139.08C138.622 139.07 138.922 139.066 139.208 139.066C140.291 139.066 141.116 139.303 141.684 139.777C142.256 140.247 142.542 141.019 142.542 142.094C142.542 142.527 142.514 142.978 142.457 143.448C142.401 143.917 142.333 144.404 142.253 144.906C142.178 145.404 142.113 145.897 142.056 146.385C142 146.874 141.972 147.355 141.972 147.83C141.972 148.504 142.066 149.065 142.253 149.511C142.446 149.953 142.685 150.304 142.971 150.565C143.252 150.83 143.554 151.014 143.878 151.116C144.202 151.223 144.497 151.276 144.764 151.276C145.58 151.276 146.349 151.011 147.071 150.481C147.793 149.955 148.457 149.32 149.061 148.576C149.671 147.832 150.217 147.046 150.7 146.218C151.183 145.39 151.586 144.664 151.91 144.041C152.004 143.873 152.137 143.741 152.311 143.643C152.479 143.55 152.66 143.503 152.852 143.503C153.195 143.503 153.459 143.613 153.647 143.831C153.839 144.045 153.935 144.285 153.935 144.55C153.935 144.736 153.895 144.906 153.816 145.059C153.38 145.832 152.873 146.701 152.297 147.669C151.715 148.641 151.054 149.551 150.313 150.397C149.572 151.244 148.743 151.96 147.824 152.546C146.905 153.128 145.894 153.419 144.792 153.419C144.108 153.419 143.461 153.293 142.851 153.042C142.246 152.786 141.721 152.418 141.276 151.939C140.826 151.46 140.469 150.867 140.207 150.16C139.939 149.453 139.806 148.658 139.806 147.774C139.806 146.829 139.902 145.892 140.094 144.962C140.282 144.027 140.376 143.136 140.376 142.289C140.376 141.931 140.296 141.664 140.136 141.487C139.972 141.306 139.616 141.215 139.067 141.215H138.195C137.881 141.215 137.546 141.224 137.189 141.243ZM134.025 139.156H135.277C135.277 139.022 135.272 138.847 135.262 138.633C135.253 138.414 135.234 138.201 135.206 137.991C135.178 137.787 135.141 137.61 135.094 137.461C135.047 137.307 134.995 137.231 134.939 137.231C134.878 137.231 134.805 137.303 134.721 137.447C134.636 137.586 134.547 137.754 134.454 137.949C134.36 138.149 134.273 138.363 134.193 138.591C134.118 138.815 134.062 139.003 134.025 139.156Z" fill="#147506"/>
<path d="M155.3 149.748C155.698 150.293 156.212 150.73 156.84 151.06C157.464 151.39 158.233 151.556 159.147 151.556C160.075 151.556 160.919 151.335 161.679 150.893C162.438 150.451 163.132 149.872 163.761 149.155C164.384 148.439 164.944 147.639 165.442 146.755C165.934 145.866 166.379 144.98 166.778 144.097C166.872 143.892 167.005 143.736 167.179 143.629C167.348 143.527 167.537 143.476 167.748 143.476C168.067 143.476 168.327 143.589 168.529 143.817C168.726 144.041 168.824 144.285 168.824 144.55C168.824 144.643 168.815 144.722 168.796 144.787C168.778 144.857 168.749 144.929 168.712 145.004C167.404 147.864 165.976 150.02 164.429 151.472C162.881 152.923 161.13 153.667 159.175 153.705C157.918 153.705 156.835 153.465 155.926 152.986C155.016 152.502 154.266 151.879 153.675 151.116C153.089 150.353 152.653 149.492 152.367 148.534C152.081 147.571 151.938 146.611 151.938 145.653C151.938 144.69 152.057 143.803 152.297 142.994C152.531 142.185 152.873 141.48 153.323 140.88C153.769 140.275 154.299 139.803 154.913 139.463C155.532 139.124 156.212 138.954 156.953 138.954C157.389 138.954 157.82 139.045 158.247 139.226C158.673 139.403 159.058 139.656 159.4 139.987C159.742 140.317 160.019 140.717 160.23 141.187C160.436 141.657 160.539 142.194 160.539 142.799C160.539 143.571 160.406 144.297 160.139 144.976C159.876 145.65 159.51 146.28 159.041 146.867C158.577 147.453 158.024 147.99 157.382 148.478C156.735 148.967 156.041 149.39 155.3 149.748ZM154.442 147.913C155.033 147.667 155.569 147.355 156.052 146.978C156.54 146.601 156.953 146.187 157.29 145.736C157.632 145.285 157.9 144.811 158.092 144.313C158.279 143.81 158.373 143.306 158.373 142.799C158.373 142.231 158.233 141.803 157.951 141.515C157.665 141.222 157.332 141.075 156.953 141.075C156.441 141.075 156.005 141.217 155.644 141.501C155.283 141.78 154.988 142.147 154.758 142.603C154.528 143.055 154.362 143.557 154.259 144.11C154.156 144.669 154.104 145.22 154.104 145.764C154.104 146.104 154.137 146.462 154.203 146.839C154.268 147.215 154.348 147.574 154.442 147.913ZM232.137 124.964C232.137 127.243 231.7 129.281 230.828 131.076C229.956 132.877 228.723 134.402 227.129 135.654C225.53 136.91 223.622 137.87 221.404 138.535C219.182 139.205 216.732 139.54 214.054 139.54C213.731 139.54 213.45 139.452 213.21 139.275C212.976 139.094 212.859 138.824 212.859 138.466C212.859 138.187 212.962 137.942 213.168 137.733C213.379 137.528 213.637 137.426 213.942 137.426C216.333 137.426 218.516 137.152 220.49 136.603C222.464 136.058 224.154 135.254 225.561 134.188C226.967 133.123 228.06 131.818 228.838 130.274C229.616 128.73 230.005 126.96 230.005 124.964C230.005 122.927 229.553 121.117 228.648 119.536C227.748 117.954 226.487 116.617 224.864 115.524C223.237 114.43 221.301 113.602 219.055 113.04C216.804 112.472 214.331 112.188 211.635 112.188C209.089 112.188 206.625 112.395 204.243 112.809C201.861 113.228 199.625 113.814 197.534 114.568C195.447 115.317 193.543 116.219 191.823 117.275C190.107 118.331 188.637 119.489 187.413 120.75C186.189 122.015 185.235 123.366 184.55 124.804C183.866 126.246 183.524 127.739 183.524 129.283C183.524 130.642 183.76 131.828 184.234 132.842C184.708 133.86 185.338 134.714 186.126 135.403C186.918 136.091 187.826 136.605 188.848 136.945C189.875 137.284 190.948 137.454 192.069 137.454C193.396 137.454 194.577 137.312 195.614 137.028C196.65 136.745 197.522 136.433 198.23 136.093C198.943 135.754 199.489 135.44 199.869 135.151C200.248 134.858 200.457 134.693 200.494 134.656C200.705 134.447 200.954 134.342 201.24 134.342C201.521 134.342 201.772 134.451 201.993 134.67C202.213 134.884 202.323 135.133 202.323 135.416C202.323 135.737 202.208 135.991 201.979 136.177C201.941 136.214 201.7 136.412 201.254 136.77C200.809 137.128 200.162 137.519 199.313 137.942C198.469 138.37 197.44 138.752 196.225 139.087C195.011 139.426 193.626 139.596 192.069 139.596C190.644 139.596 189.281 139.361 187.983 138.891C186.679 138.421 185.54 137.738 184.565 136.84C183.585 135.947 182.806 134.865 182.23 133.595C181.648 132.321 181.357 130.883 181.357 129.283C181.357 127.534 181.723 125.843 182.455 124.211C183.186 122.582 184.211 121.057 185.528 119.633C186.85 118.215 188.433 116.917 190.275 115.74C192.113 114.558 194.153 113.549 196.394 112.712C198.635 111.874 201.038 111.225 203.603 110.765C206.163 110.304 208.822 110.074 211.579 110.074C214.598 110.074 217.369 110.411 219.892 111.086C222.419 111.765 224.588 112.746 226.397 114.03C228.212 115.31 229.623 116.868 230.631 118.705C231.635 120.543 232.137 122.629 232.137 124.964ZM215.222 118.238C215.508 118.238 215.759 118.335 215.974 118.531C216.195 118.731 216.305 118.991 216.305 119.312C216.305 119.498 216.253 119.668 216.15 119.822C216.042 119.971 215.913 120.11 215.763 120.24C214.699 121.073 213.848 121.968 213.21 122.927C212.577 123.89 212.094 124.922 211.762 126.025C211.429 127.123 211.211 128.295 211.108 129.541C211.004 130.783 210.953 132.084 210.953 133.442V137C210.953 139.336 210.742 141.552 210.32 143.65C209.903 145.753 209.197 147.595 208.203 149.176C207.204 150.758 205.87 152.016 204.201 152.951C202.527 153.881 200.429 154.347 197.906 154.347C196.767 154.347 195.651 154.209 194.559 153.935C193.466 153.665 192.437 153.27 191.471 152.749C190.5 152.232 189.607 151.597 188.791 150.844C187.976 150.09 187.272 149.244 186.682 148.304C186.644 148.225 186.607 148.134 186.569 148.032C186.531 147.93 186.513 147.832 186.513 147.739C186.513 147.474 186.614 147.232 186.815 147.013C187.012 146.799 187.272 146.692 187.596 146.692C187.788 146.692 187.964 146.743 188.123 146.846C188.283 146.948 188.421 147.076 188.538 147.229C189.753 148.904 191.129 150.16 192.667 150.997C194.205 151.835 195.951 152.253 197.906 152.253C200.148 152.253 201.974 151.844 203.385 151.025C204.801 150.207 205.912 149.085 206.719 147.662C207.525 146.243 208.076 144.583 208.372 142.68C208.667 140.778 208.815 138.752 208.815 136.603V133.016C208.815 131.751 208.871 130.446 208.984 129.102C209.096 127.753 209.359 126.434 209.771 125.146C210.179 123.857 210.768 122.634 211.537 121.475C212.305 120.317 213.344 119.294 214.652 118.405C214.727 118.368 214.821 118.331 214.933 118.294C215.051 118.256 215.147 118.238 215.222 118.238ZM236.3 149.127L236.328 150.453C236.628 149.816 236.978 149.125 237.376 148.381C237.775 147.636 238.204 146.874 238.663 146.092C239.118 145.311 239.601 144.534 240.112 143.762C240.628 142.989 241.16 142.264 241.709 141.585C242.257 140.924 242.813 140.447 243.375 140.154C243.933 139.866 244.461 139.722 244.958 139.722C245.45 139.722 245.882 139.819 246.252 140.015C246.622 140.215 246.925 140.482 247.159 140.817C247.398 141.157 247.579 141.554 247.701 142.01C247.827 142.461 247.891 142.95 247.891 143.476C247.891 143.908 247.846 144.487 247.757 145.213C247.673 145.939 247.63 146.697 247.63 147.488C247.63 147.939 247.654 148.385 247.701 148.827C247.748 149.274 247.834 149.672 247.961 150.02C248.083 150.365 248.268 150.646 248.517 150.865C248.76 151.083 249.082 151.193 249.48 151.193C249.94 151.193 250.397 151.065 250.852 150.809C251.306 150.553 251.752 150.213 252.188 149.79C252.624 149.367 253.041 148.897 253.44 148.381C253.838 147.86 254.199 147.341 254.523 146.825C254.846 146.308 255.132 145.808 255.381 145.325C255.625 144.845 255.824 144.445 255.979 144.124C256.166 143.692 256.497 143.476 256.97 143.476C257.294 143.476 257.552 143.589 257.744 143.817C257.932 144.041 258.025 144.285 258.025 144.55C258.025 144.699 257.997 144.841 257.941 144.976C257.866 145.125 257.718 145.434 257.498 145.904C257.282 146.378 256.989 146.925 256.619 147.543C256.248 148.167 255.817 148.818 255.325 149.497C254.828 150.172 254.281 150.797 253.686 151.374C253.086 151.946 252.439 152.416 251.745 152.784C251.056 153.151 250.331 153.335 249.572 153.335C248.695 153.335 247.991 153.151 247.462 152.784C246.932 152.416 246.519 151.951 246.224 151.388C245.928 150.821 245.729 150.19 245.626 149.497C245.518 148.799 245.464 148.12 245.464 147.46C245.464 147.12 245.481 146.757 245.513 146.371C245.542 145.985 245.574 145.604 245.612 145.227C245.649 144.85 245.682 144.497 245.71 144.166C245.739 143.836 245.753 143.559 245.753 143.336C245.753 142.75 245.673 142.354 245.513 142.15C245.349 141.94 245.164 141.836 244.958 141.836C244.653 141.836 244.306 142.01 243.917 142.359C243.528 142.708 243.12 143.166 242.693 143.734C242.266 144.297 241.837 144.931 241.406 145.639C240.979 146.346 240.567 147.048 240.168 147.746C239.77 148.439 239.409 149.102 239.085 149.734C238.766 150.367 238.501 150.89 238.291 151.304C237.892 152.095 237.489 152.628 237.081 152.902C236.673 153.172 236.307 153.307 235.984 153.307C235.393 153.307 234.943 153.077 234.633 152.616C234.319 152.156 234.162 151.595 234.162 150.935V149.155C234.162 145.597 234.167 142.201 234.176 138.968C234.185 135.74 234.232 132.735 234.317 129.953C234.401 127.176 234.544 124.662 234.746 122.41C234.943 120.159 235.24 118.238 235.639 116.647C236.038 115.056 236.546 113.828 237.165 112.963C237.784 112.093 238.558 111.658 239.486 111.658C240.283 111.658 240.958 111.877 241.512 112.314C242.06 112.746 242.506 113.335 242.848 114.079C243.19 114.823 243.436 115.689 243.586 116.675C243.741 117.666 243.819 118.708 243.819 119.801C243.819 122.02 243.615 124.199 243.207 126.339C242.794 128.478 242.248 130.565 241.568 132.598C240.883 134.63 240.086 136.612 239.177 138.542C238.262 140.478 237.303 142.357 236.3 144.18V148.137V149.127ZM236.328 140.029C237.125 138.298 237.85 136.607 238.501 134.956C239.158 133.309 239.718 131.667 240.182 130.03C240.651 128.388 241.017 126.725 241.28 125.041C241.547 123.352 241.68 121.596 241.68 119.773C241.68 119.47 241.666 118.989 241.638 118.328C241.61 117.668 241.523 117 241.378 116.326C241.237 115.647 241.019 115.051 240.724 114.54C240.429 114.033 240.016 113.779 239.486 113.779C239.069 113.779 238.708 114.058 238.403 114.616C238.098 115.17 237.833 115.924 237.608 116.877C237.378 117.826 237.189 118.931 237.039 120.191C236.884 121.457 236.76 122.794 236.666 124.204C236.572 125.618 236.502 127.069 236.455 128.558C236.408 130.046 236.375 131.493 236.356 132.898C236.338 134.298 236.328 135.61 236.328 136.833V140.029Z" fill="#147506"/>
<path d="M277.992 144.969C277.917 145.118 277.76 145.432 277.521 145.911C277.282 146.394 276.98 146.946 276.614 147.564C276.243 148.188 275.81 148.839 275.313 149.518C274.82 150.193 274.269 150.814 273.66 151.381C273.055 151.944 272.401 152.409 271.698 152.777C270.994 153.144 270.254 153.328 269.475 153.328C268.373 153.328 267.447 152.981 266.697 152.288C265.947 151.59 265.401 150.714 265.058 149.658C264.416 150.732 263.647 151.583 262.752 152.211C261.861 152.844 260.97 153.16 260.079 153.16C259.376 153.16 258.74 153.032 258.173 152.777C257.601 152.525 257.116 152.167 256.717 151.702C256.319 151.242 256.009 150.702 255.789 150.083C255.573 149.46 255.465 148.781 255.465 148.046C255.465 146.576 255.716 145.28 256.218 144.159C256.72 143.038 257.36 142.101 258.138 141.347C258.916 140.594 259.777 140.029 260.719 139.652C261.657 139.275 262.564 139.087 263.441 139.087C264.027 139.087 264.566 139.168 265.058 139.331C265.555 139.489 265.98 139.663 266.331 139.854C266.683 140.04 266.953 140.215 267.14 140.378C267.332 140.536 267.438 140.624 267.457 140.643C267.663 140.889 267.766 141.143 267.766 141.403C267.766 141.687 267.663 141.938 267.457 142.157C267.246 142.371 266.997 142.478 266.711 142.478C266.411 142.478 266.156 142.375 265.945 142.171C265.907 142.134 265.823 142.061 265.691 141.954C265.555 141.852 265.375 141.745 265.15 141.633C264.92 141.522 264.648 141.422 264.334 141.333C264.02 141.25 263.663 141.208 263.265 141.208C262.679 141.208 262.053 141.34 261.387 141.606C260.721 141.871 260.114 142.28 259.566 142.834C259.017 143.387 258.557 144.085 258.187 144.927C257.817 145.764 257.631 146.757 257.631 147.906C257.631 148.264 257.669 148.627 257.744 148.995C257.819 149.362 257.95 149.697 258.138 150C258.33 150.297 258.588 150.541 258.911 150.732C259.235 150.918 259.634 151.011 260.107 151.011C260.449 151.011 260.843 150.9 261.289 150.676C261.734 150.448 262.161 150.1 262.569 149.63C262.977 149.16 263.347 148.567 263.68 147.85C264.013 147.134 264.245 146.285 264.376 145.304C264.414 145.043 264.538 144.822 264.749 144.641C264.955 144.464 265.201 144.376 265.487 144.376C265.755 144.376 265.987 144.478 266.184 144.683C266.385 144.892 266.495 145.127 266.514 145.387C266.533 145.746 266.571 146.25 266.627 146.902C266.683 147.553 266.812 148.197 267.014 148.834C267.211 149.476 267.508 150.032 267.907 150.502C268.305 150.976 268.856 151.214 269.56 151.214C270.014 151.214 270.467 151.09 270.917 150.844C271.362 150.597 271.799 150.272 272.225 149.867C272.652 149.462 273.06 149.002 273.449 148.485C273.838 147.964 274.194 147.441 274.518 146.915C274.841 146.39 275.125 145.88 275.369 145.387C275.617 144.899 275.826 144.476 275.995 144.117C276.093 143.913 276.232 143.752 276.41 143.636C276.593 143.524 276.787 143.469 276.994 143.469C277.317 143.469 277.58 143.587 277.781 143.824C277.978 144.057 278.077 144.306 278.077 144.571C278.077 144.701 278.049 144.834 277.992 144.969Z" fill="#147506"/>
<path d="M279.019 141.243C278.939 141.754 278.843 142.231 278.731 142.673C278.618 143.115 278.51 143.501 278.407 143.831C278.299 144.162 278.208 144.429 278.133 144.634C278.058 144.843 278.011 144.957 277.992 144.976C277.8 145.408 277.467 145.625 276.994 145.625C276.726 145.625 276.48 145.525 276.255 145.325C276.025 145.129 275.911 144.88 275.911 144.578C275.911 144.466 275.929 144.383 275.967 144.327C276.009 144.266 276.068 144.152 276.143 143.985C276.218 143.817 276.311 143.534 276.424 143.134C276.537 142.738 276.68 142.127 276.853 141.299C276.529 141.299 276.197 141.289 275.854 141.271C275.512 141.252 275.196 141.187 274.905 141.075C274.609 140.964 274.366 140.785 274.173 140.538C273.986 140.291 273.892 139.952 273.892 139.519C273.892 139.198 273.981 138.766 274.159 138.221C274.342 137.673 274.586 137.135 274.891 136.61C275.191 136.084 275.531 135.628 275.911 135.242C276.29 134.856 276.67 134.663 277.05 134.663C277.486 134.663 277.842 134.823 278.119 135.144C278.396 135.461 278.609 135.851 278.759 136.317C278.914 136.777 279.024 137.261 279.089 137.768C279.155 138.275 279.188 138.717 279.188 139.094C279.511 139.094 279.83 139.089 280.144 139.08C280.454 139.07 280.752 139.066 281.038 139.066C282.121 139.066 282.948 139.303 283.52 139.777C284.088 140.247 284.371 141.019 284.371 142.094C284.371 142.527 284.343 142.978 284.287 143.448C284.231 143.917 284.163 144.404 284.083 144.906C284.008 145.404 283.942 145.897 283.886 146.385C283.83 146.874 283.802 147.355 283.802 147.83C283.802 148.504 283.896 149.065 284.083 149.511C284.275 149.953 284.514 150.304 284.8 150.565C285.082 150.83 285.384 151.014 285.708 151.116C286.031 151.223 286.327 151.276 286.594 151.276C287.41 151.276 288.179 151.011 288.901 150.481C289.623 149.955 290.286 149.32 290.891 148.576C291.501 147.832 292.047 147.046 292.53 146.218C293.013 145.39 293.416 144.664 293.74 144.041C293.833 143.873 293.967 143.741 294.14 143.643C294.309 143.55 294.49 143.503 294.682 143.503C295.024 143.503 295.289 143.613 295.477 143.831C295.669 144.045 295.765 144.285 295.765 144.55C295.765 144.736 295.728 144.906 295.652 145.059C295.212 145.832 294.703 146.701 294.126 147.669C293.545 148.641 292.884 149.551 292.143 150.397C291.407 151.244 290.577 151.96 289.653 152.546C288.734 153.128 287.724 153.419 286.622 153.419C285.937 153.419 285.293 153.293 284.688 153.042C284.078 152.786 283.551 152.418 283.105 151.939C282.66 151.46 282.304 150.867 282.036 150.16C281.769 149.453 281.635 148.658 281.635 147.774C281.635 146.829 281.732 145.892 281.924 144.962C282.111 144.027 282.205 143.136 282.205 142.289C282.205 141.931 282.126 141.664 281.966 141.487C281.802 141.306 281.446 141.215 280.897 141.215H280.025C279.715 141.215 279.38 141.224 279.019 141.243ZM275.854 139.156H277.106C277.106 139.022 277.101 138.847 277.092 138.633C277.083 138.414 277.064 138.201 277.036 137.991C277.008 137.787 276.97 137.61 276.923 137.461C276.876 137.307 276.825 137.231 276.769 137.231C276.712 137.231 276.64 137.303 276.551 137.447C276.466 137.586 276.377 137.754 276.283 137.949C276.19 138.149 276.105 138.363 276.03 138.591C275.95 138.815 275.892 139.003 275.854 139.156Z" fill="#147506"/>
<path d="M300.294 150.341C300.576 149.779 300.941 149.076 301.392 148.234C301.837 147.397 302.301 146.555 302.784 145.708C303.267 144.862 303.741 144.062 304.205 143.308C304.674 142.554 305.067 141.98 305.386 141.585C305.94 140.924 306.509 140.452 307.095 140.168C307.686 139.889 308.228 139.75 308.72 139.75C309.217 139.75 309.639 139.852 309.986 140.057C310.338 140.266 310.628 140.545 310.858 140.894C311.088 141.238 311.259 141.643 311.371 142.108C311.484 142.568 311.54 143.062 311.54 143.587C311.54 143.89 311.526 144.285 311.498 144.773C311.47 145.266 311.442 145.794 311.414 146.357C311.386 146.925 311.357 147.509 311.329 148.109C311.301 148.713 311.278 149.278 311.259 149.804C311.54 149.241 311.862 148.616 312.223 147.927C312.584 147.239 312.949 146.555 313.32 145.876C313.69 145.201 314.046 144.566 314.389 143.971C314.731 143.376 315.045 142.889 315.331 142.513C316.147 141.401 316.911 140.657 317.624 140.28C318.337 139.908 318.967 139.722 319.516 139.722C320.163 139.722 320.695 139.838 321.112 140.07C321.53 140.308 321.856 140.61 322.09 140.978C322.329 141.345 322.496 141.754 322.589 142.206C322.688 142.657 322.737 143.089 322.737 143.503C322.737 144.145 322.688 144.815 322.589 145.513C322.496 146.206 322.449 147.034 322.449 147.997C322.449 148.392 322.467 148.788 322.505 149.183C322.542 149.579 322.625 149.927 322.751 150.23C322.873 150.532 323.068 150.776 323.335 150.962C323.597 151.153 323.956 151.248 324.411 151.248C324.908 151.248 325.393 151.121 325.867 150.865C326.34 150.609 326.795 150.274 327.231 149.86C327.672 149.446 328.087 148.976 328.476 148.451C328.865 147.92 329.219 147.392 329.538 146.867C329.862 146.341 330.148 145.836 330.396 145.352C330.645 144.873 330.844 144.464 330.994 144.124C331.088 143.92 331.221 143.759 331.395 143.643C331.564 143.531 331.753 143.476 331.964 143.476C332.283 143.476 332.544 143.594 332.745 143.831C332.942 144.064 333.041 144.313 333.041 144.578C333.041 144.708 333.012 144.841 332.956 144.976C332.881 145.125 332.731 145.439 332.506 145.918C332.276 146.401 331.971 146.948 331.592 147.557C331.212 148.171 330.771 148.818 330.269 149.497C329.763 150.172 329.207 150.797 328.603 151.374C327.993 151.946 327.337 152.416 326.633 152.784C325.935 153.151 325.194 153.335 324.411 153.335C323.576 153.335 322.899 153.191 322.378 152.902C321.858 152.609 321.441 152.218 321.126 151.73C320.812 151.237 320.599 150.672 320.486 150.034C320.369 149.392 320.311 148.723 320.311 148.025C320.311 147.104 320.36 146.253 320.458 145.471C320.552 144.69 320.599 144.08 320.599 143.643C320.599 143.173 320.557 142.817 320.472 142.575C320.383 142.329 320.278 142.154 320.156 142.052C320.034 141.945 319.914 141.887 319.797 141.878C319.685 141.868 319.6 141.864 319.544 141.864C319.089 141.864 318.611 142.115 318.109 142.617C317.603 143.115 317.085 143.778 316.555 144.606C316.02 145.434 315.474 146.376 314.916 147.432C314.358 148.488 313.793 149.562 313.221 150.655C312.898 151.255 312.628 151.753 312.412 152.149C312.192 152.544 311.983 152.856 311.787 153.084C311.585 153.307 311.39 153.467 311.203 153.565C311.01 153.658 310.799 153.705 310.57 153.705C310.077 153.705 309.705 153.535 309.451 153.195C309.194 152.856 309.065 152.414 309.065 151.869C309.065 151.586 309.074 151.209 309.093 150.739C309.112 150.269 309.13 149.751 309.149 149.183C309.168 148.62 309.196 148.036 309.233 147.432C309.271 146.827 309.299 146.248 309.318 145.694C309.337 145.141 309.355 144.645 309.374 144.208C309.393 143.776 309.402 143.448 309.402 143.224C309.402 142.731 309.318 142.378 309.149 142.164C308.98 141.945 308.781 141.836 308.551 141.836C308.34 141.836 308.108 141.913 307.855 142.066C307.597 142.215 307.297 142.506 306.955 142.938C306.687 143.278 306.35 143.773 305.942 144.424C305.534 145.071 305.103 145.792 304.648 146.587C304.193 147.378 303.743 148.188 303.298 149.016C302.852 149.844 302.468 150.588 302.144 151.248C301.746 152.039 301.347 152.581 300.948 152.874C300.55 153.163 300.161 153.307 299.781 153.307C299.228 153.307 298.82 153.142 298.557 152.811C298.29 152.486 298.156 152.049 298.156 151.5C298.156 151.444 298.17 151.104 298.198 150.481C298.227 149.862 298.259 149.104 298.297 148.206C298.334 147.313 298.377 146.357 298.424 145.339C298.475 144.324 298.52 143.373 298.557 142.485C298.576 142.015 298.557 141.582 298.501 141.187C298.44 140.791 298.363 140.557 298.269 140.482C298.119 140.519 297.821 140.868 297.376 141.529C296.925 142.185 296.361 143.334 295.681 144.976C295.582 145.18 295.439 145.341 295.252 145.457C295.059 145.569 294.86 145.625 294.654 145.625C294.33 145.625 294.072 145.515 293.88 145.297C293.693 145.083 293.599 144.834 293.599 144.55C293.599 144.42 293.627 144.278 293.683 144.124C294.537 142.11 295.352 140.626 296.131 139.673C296.909 138.724 297.669 138.249 298.41 138.249C298.846 138.249 299.211 138.347 299.507 138.542C299.802 138.742 300.034 138.998 300.203 139.31C300.376 139.622 300.501 139.975 300.576 140.371C300.651 140.766 300.688 141.152 300.688 141.529C300.688 143.203 300.646 144.738 300.562 146.134C300.477 147.525 300.388 148.927 300.294 150.341Z" fill="#147506"/>
<path d="M353.015 144.969C352.94 145.118 352.782 145.432 352.543 145.911C352.309 146.394 352.006 146.946 351.636 147.564C351.266 148.188 350.832 148.839 350.335 149.518C349.843 150.193 349.294 150.814 348.689 151.381C348.08 151.944 347.423 152.409 346.72 152.777C346.017 153.144 345.276 153.328 344.497 153.328C343.396 153.328 342.472 152.981 341.726 152.288C340.976 151.59 340.43 150.714 340.088 149.658C339.441 150.732 338.672 151.583 337.781 152.211C336.885 152.844 335.992 153.16 335.101 153.16C334.398 153.16 333.763 153.032 333.195 152.777C332.623 152.525 332.138 152.167 331.739 151.702C331.341 151.242 331.034 150.702 330.818 150.083C330.598 149.46 330.488 148.781 330.488 148.046C330.488 146.576 330.738 145.28 331.24 144.159C331.746 143.038 332.389 142.101 333.167 141.347C333.945 140.594 334.804 140.029 335.741 139.652C336.684 139.275 337.591 139.087 338.463 139.087C339.049 139.087 339.591 139.168 340.088 139.331C340.58 139.489 341.002 139.663 341.354 139.854C341.705 140.04 341.975 140.215 342.162 140.378C342.355 140.536 342.46 140.624 342.479 140.643C342.685 140.889 342.788 141.143 342.788 141.403C342.788 141.687 342.685 141.938 342.479 142.157C342.268 142.371 342.022 142.478 341.741 142.478C341.436 142.478 341.178 142.375 340.967 142.171C340.929 142.134 340.845 142.061 340.714 141.954C340.578 141.852 340.397 141.745 340.172 141.633C339.942 141.522 339.67 141.422 339.356 141.333C339.047 141.25 338.693 141.208 338.294 141.208C337.704 141.208 337.075 141.34 336.409 141.606C335.748 141.871 335.141 142.28 334.588 142.834C334.039 143.387 333.58 144.085 333.209 144.927C332.839 145.764 332.654 146.757 332.654 147.906C332.654 148.264 332.691 148.627 332.766 148.995C332.841 149.362 332.975 149.697 333.167 150C333.355 150.297 333.61 150.541 333.934 150.732C334.257 150.918 334.656 151.011 335.129 151.011C335.472 151.011 335.866 150.9 336.311 150.676C336.756 150.448 337.183 150.1 337.591 149.63C337.999 149.16 338.369 148.567 338.702 147.85C339.035 147.134 339.267 146.285 339.398 145.304C339.441 145.043 339.565 144.822 339.771 144.641C339.982 144.464 340.228 144.376 340.51 144.376C340.777 144.376 341.011 144.478 341.213 144.683C341.41 144.892 341.518 145.127 341.537 145.387C341.555 145.746 341.593 146.25 341.649 146.902C341.71 147.553 341.839 148.197 342.036 148.834C342.237 149.476 342.538 150.032 342.936 150.502C343.335 150.976 343.883 151.214 344.582 151.214C345.041 151.214 345.494 151.09 345.939 150.844C346.385 150.597 346.821 150.272 347.247 149.867C347.674 149.462 348.082 149.002 348.471 148.485C348.86 147.964 349.217 147.441 349.54 146.915C349.864 146.39 350.15 145.88 350.398 145.387C350.642 144.899 350.851 144.476 351.024 144.117C351.118 143.913 351.254 143.752 351.432 143.636C351.615 143.524 351.81 143.469 352.016 143.469C352.339 143.469 352.602 143.587 352.804 143.824C353.001 144.057 353.099 144.306 353.099 144.571C353.099 144.701 353.071 144.834 353.015 144.969Z" fill="#147506"/>
<path d="M369.669 145.032C369.556 145.236 369.362 145.613 369.085 146.162C368.809 146.706 368.438 147.322 367.974 148.011C367.51 148.699 366.954 149.411 366.307 150.146C365.665 150.881 364.924 151.553 364.085 152.163C363.25 152.777 362.315 153.281 361.279 153.677C360.247 154.072 359.124 154.27 357.91 154.27C356.827 154.27 355.868 154.077 355.033 153.691C354.194 153.305 353.481 152.758 352.895 152.051C352.304 151.344 351.859 150.511 351.559 149.553C351.254 148.59 351.102 147.525 351.102 146.357C351.102 145.227 351.263 144.169 351.587 143.182C351.906 142.192 352.346 141.329 352.909 140.594C353.467 139.859 354.116 139.28 354.857 138.856C355.598 138.433 356.386 138.221 357.22 138.221C357.849 138.221 358.418 138.328 358.929 138.542C359.445 138.761 359.879 139.049 360.23 139.408C360.582 139.766 360.856 140.161 361.053 140.594C361.255 141.026 361.356 141.459 361.356 141.892C361.356 142.306 361.302 142.692 361.194 143.05C361.091 143.408 360.96 143.724 360.8 143.999C360.636 144.273 360.451 144.49 360.245 144.648C360.034 144.811 359.825 144.892 359.619 144.892C359.295 144.892 359.033 144.787 358.831 144.578C358.634 144.369 358.536 144.115 358.536 143.817C358.536 143.664 358.568 143.531 358.634 143.42C358.7 143.308 358.775 143.189 358.859 143.064C358.943 142.943 359.021 142.794 359.091 142.617C359.157 142.436 359.19 142.203 359.19 141.92C359.19 141.524 359.004 141.166 358.634 140.845C358.264 140.529 357.792 140.371 357.22 140.371C356.691 140.371 356.184 140.529 355.701 140.845C355.218 141.166 354.796 141.596 354.435 142.136C354.074 142.671 353.783 143.301 353.563 144.027C353.347 144.752 353.24 145.52 353.24 146.329C353.24 147.102 353.333 147.836 353.521 148.534C353.709 149.232 353.992 149.848 354.372 150.383C354.752 150.923 355.232 151.351 355.814 151.667C356.39 151.988 357.08 152.149 357.881 152.149C358.904 152.149 359.853 151.965 360.73 151.597C361.602 151.23 362.399 150.765 363.121 150.202C363.843 149.634 364.479 149.018 365.027 148.353C365.576 147.683 366.045 147.05 366.434 146.455C366.823 145.864 367.128 145.348 367.348 144.906C367.568 144.459 367.697 144.18 367.735 144.069C367.81 143.883 367.936 143.736 368.115 143.629C368.298 143.527 368.492 143.476 368.698 143.476C369.022 143.476 369.284 143.59 369.486 143.817C369.683 144.041 369.782 144.294 369.782 144.578C369.782 144.69 369.744 144.841 369.669 145.032Z" fill="#147506"/>
<path d="M378.32 153.244C378.985 152.584 379.661 151.911 380.345 151.228C381.025 150.539 381.689 149.818 382.336 149.065C382.983 148.311 383.585 147.525 384.143 146.706C384.706 145.887 385.205 145.015 385.641 144.09C385.735 143.885 385.866 143.729 386.035 143.622C386.208 143.52 386.398 143.469 386.605 143.469C386.928 143.469 387.191 143.583 387.392 143.81C387.589 144.034 387.688 144.287 387.688 144.571C387.688 144.72 387.66 144.862 387.603 144.997C387.017 146.22 386.344 147.341 385.585 148.36C384.825 149.374 384.028 150.339 383.194 151.255C382.354 152.167 381.508 153.051 380.655 153.907C379.801 154.768 378.985 155.63 378.207 156.496C378.132 157.793 378.132 159.098 378.207 160.41C378.282 161.717 378.32 163.106 378.32 164.576C378.32 165.78 378.282 166.985 378.207 168.19C378.132 169.395 378.008 170.548 377.834 171.651C377.666 172.753 377.433 173.786 377.138 174.749C376.843 175.707 376.468 176.54 376.013 177.247C375.558 177.954 375.026 178.51 374.416 178.914C373.811 179.319 373.101 179.521 372.285 179.521C370.935 179.521 369.899 179.061 369.177 178.14C368.455 177.214 368.094 175.923 368.094 174.267C368.094 173.365 368.194 172.395 368.396 171.358C368.593 170.32 368.872 169.251 369.233 168.148C369.594 167.046 370.028 165.929 370.534 164.799C371.036 163.669 371.58 162.568 372.166 161.499C372.757 160.424 373.385 159.401 374.051 158.428C374.712 157.461 375.384 156.582 376.069 155.791C376.107 154.884 376.149 153.946 376.196 152.979C376.243 152.007 376.296 151.107 376.357 150.279C375.86 151.144 375.246 151.842 374.515 152.372C373.788 152.898 372.986 153.16 372.109 153.16C370.67 153.16 369.54 152.681 368.719 151.723C367.904 150.76 367.496 149.441 367.496 147.767C367.496 146.539 367.615 145.422 367.854 144.417C368.094 143.408 368.349 142.541 368.621 141.815C368.898 141.089 369.151 140.533 369.381 140.147C369.606 139.761 369.718 139.577 369.718 139.596C369.929 139.275 370.225 139.115 370.604 139.115C370.928 139.115 371.188 139.224 371.385 139.443C371.587 139.661 371.687 139.91 371.687 140.189C371.687 140.398 371.629 140.587 371.512 140.754C371.53 140.736 371.441 140.892 371.244 141.222C371.043 141.552 370.825 142.029 370.59 142.652C370.351 143.271 370.131 144.015 369.929 144.885C369.732 145.75 369.634 146.701 369.634 147.739C369.634 148.771 369.824 149.581 370.203 150.167C370.583 150.748 371.2 151.039 372.053 151.039C373.136 151.039 374.114 150.244 374.986 148.653C375.863 147.062 376.604 144.75 377.208 141.717C377.246 141.471 377.361 141.268 377.553 141.11C377.741 140.952 377.968 140.873 378.235 140.873C378.54 140.873 378.796 140.975 379.002 141.18C379.213 141.389 379.318 141.643 379.318 141.94C379.318 142.001 379.281 142.336 379.206 142.945C379.126 143.559 379.035 144.373 378.932 145.387C378.828 146.406 378.721 147.59 378.608 148.939C378.491 150.283 378.395 151.718 378.32 153.244ZM376.041 159.238C375.188 160.461 374.405 161.75 373.692 163.103C372.979 164.462 372.367 165.811 371.856 167.15C371.345 168.485 370.947 169.765 370.661 170.988C370.375 172.211 370.232 173.304 370.232 174.267C370.232 175.249 370.393 176.016 370.717 176.57C371.04 177.124 371.554 177.4 372.257 177.4C372.881 177.4 373.434 177.096 373.917 176.486C374.405 175.872 374.815 175 375.148 173.87C375.476 172.739 375.727 171.369 375.9 169.76C376.069 168.15 376.153 166.348 376.153 164.352C376.153 163.538 376.139 162.717 376.111 161.889C376.083 161.061 376.06 160.177 376.041 159.238ZM209.395 11.963C209.663 11.9565 209.901 11.8599 210.109 11.6734C210.296 11.4734 210.394 11.2373 210.401 10.9652C210.394 10.6991 210.297 10.463 210.109 10.257C209.914 10.0795 209.659 9.98096 209.395 9.98096C209.131 9.98096 208.876 10.0795 208.681 10.257C208.493 10.4565 208.396 10.6926 208.389 10.9652C208.382 11.2378 208.479 11.4739 208.681 11.6734C208.882 11.8595 209.12 11.956 209.395 11.963Z" fill="#147506"/>
<path d="M225.437 19.6362C225.395 19.5115 225.328 19.3963 225.241 19.2972C225.154 19.1981 225.048 19.117 224.929 19.0586C224.811 19.0003 224.681 18.9658 224.549 18.9571C224.417 18.9485 224.284 18.9658 224.159 19.0082L221.464 19.9062C219.101 19.0991 216.793 18.1424 214.554 17.0419C215.149 16.4596 215.588 15.7394 215.832 14.9466C216.475 12.8512 215.801 9.68831 211.96 7.15407C209.425 5.47806 206.328 4.67006 203.823 4.03092C202.789 3.80901 201.776 3.49851 200.796 3.10291C200.588 2.99685 200.333 2.8473 200.032 2.65425C197.451 0.923184 194.407 -0.00129653 191.292 1.36474e-06C181.867 1.36474e-06 174.194 7.83228 174.194 17.4613C174.194 20.5342 174.989 23.4271 176.356 25.9425H166.148C165.882 25.9425 165.626 26.0476 165.437 26.2347C165.249 26.4218 165.143 26.6756 165.143 26.9403C165.132 32.1505 166.709 37.2423 169.667 41.5477C172.625 45.8532 176.825 49.1711 181.717 51.0665C180.005 52.8798 178.859 55.1456 178.417 57.5907C177.974 60.0358 178.254 62.5557 179.223 64.8464C179.223 65.1125 179.323 65.352 179.525 65.5651L179.555 65.5846C180.832 68.1522 182.929 70.2288 185.519 71.4911L185.549 71.5511C185.757 71.7511 185.995 71.8477 186.263 71.8407H186.293C186.93 72.0933 187.59 72.3026 188.275 72.4687V76.3007L181.787 80.5919C181.415 79.7173 181.227 78.7766 181.234 77.8274C181.234 77.5628 181.128 77.309 180.94 77.1219C180.751 76.9347 180.495 76.8296 180.229 76.8296C179.962 76.8296 179.706 76.9347 179.517 77.1219C179.329 77.309 179.223 77.5628 179.223 77.8274C179.237 79.2308 179.471 80.5612 179.927 81.8185L170.614 87.9748C170.435 88.0942 170.299 88.2675 170.227 88.4693C170.155 88.671 170.15 88.8904 170.213 89.0951C170.276 89.2998 170.404 89.4789 170.577 89.606C170.751 89.7331 170.961 89.8014 171.177 89.8008H211.406C211.621 89.7993 211.83 89.7295 212.002 89.6016C212.174 89.4738 212.3 89.2946 212.362 89.0904C212.424 88.8862 212.418 88.6677 212.346 88.467C212.274 88.2662 212.138 88.0937 211.96 87.9748L202.647 81.8088C203.123 80.5575 203.361 79.2304 203.361 77.8274C203.361 72.3396 199.599 67.6004 194.309 66.2531V55.5767C197.869 54.8471 201.045 52.8663 203.25 49.9989C207.529 47.8281 211.12 44.5252 213.624 40.4556C216.129 36.3861 217.45 31.7084 217.441 26.9403C217.441 26.6756 217.335 26.4218 217.146 26.2347C216.958 26.0476 216.702 25.9425 216.435 25.9425H191.292C186.857 25.9425 183.246 22.1411 183.246 17.4613C183.246 12.7814 186.857 8.98009 191.292 8.98009C194.258 8.98009 196.924 9.97787 197.628 10.6756C198.191 11.2478 198.774 11.8699 199.378 12.5421C202.164 15.5452 205.312 18.958 209.395 18.958C210.636 18.9514 211.742 18.7351 212.714 18.309C215.347 19.7022 218.092 20.8771 220.921 21.8215L222.761 23.6566C222.855 23.7501 222.966 23.8243 223.089 23.8749C223.211 23.9255 223.343 23.9516 223.475 23.9516C223.608 23.9516 223.739 23.9255 223.862 23.8749C223.984 23.8243 224.096 23.7501 224.189 23.6566C224.283 23.5639 224.358 23.4536 224.409 23.332C224.46 23.2104 224.486 23.0801 224.486 22.9484C224.486 22.8167 224.46 22.6864 224.409 22.5648C224.358 22.4433 224.283 22.3329 224.189 22.2402L223.324 21.3924L224.803 20.8935C225.054 20.8092 225.262 20.6297 225.381 20.3942C225.499 20.1587 225.519 19.8862 225.436 19.6362M172.062 41.4382L174.908 38.6241C175.089 38.4346 175.188 38.1826 175.184 37.9218C175.18 37.661 175.074 37.4119 174.888 37.2274C174.702 37.043 174.451 36.9377 174.188 36.9341C173.925 36.9304 173.671 37.0285 173.48 37.2077L170.896 39.7719C170.473 39.1067 170.088 38.4216 169.739 37.7164L169.879 37.6166L172.897 34.6232C173.002 34.5331 173.087 34.4225 173.146 34.2982C173.206 34.174 173.239 34.0388 173.244 33.9012C173.248 33.7636 173.224 33.6266 173.172 33.4988C173.121 33.371 173.043 33.2551 172.945 33.1584C172.846 33.0618 172.728 32.9864 172.598 32.9372C172.469 32.8879 172.33 32.8657 172.192 32.8721C172.053 32.8785 171.917 32.9133 171.793 32.9742C171.669 33.0352 171.558 33.121 171.469 33.2263L168.874 35.801C168.566 35.0288 168.291 34.2439 168.049 33.4461L170.885 30.6411C171.066 30.4516 171.165 30.1996 171.161 29.9388C171.157 29.678 171.051 29.4289 170.865 29.2444C170.679 29.06 170.428 28.9547 170.165 28.9511C169.902 28.9474 169.649 29.0455 169.457 29.2247L167.547 31.131C167.35 30.0762 167.225 29.0095 167.174 27.938H177.644C179.075 29.8909 180.91 31.518 183.026 32.7104C185.142 33.9029 187.49 34.6333 189.914 34.8528C190.034 34.8993 190.158 34.9226 190.286 34.9226L190.497 34.8828L191.292 34.9226C192.892 34.9226 194.427 35.5533 195.559 36.676C196.69 37.7988 197.326 39.3215 197.326 40.9093C197.326 42.4971 196.69 44.0198 195.559 45.1425C194.427 46.2653 192.892 46.896 191.292 46.896C188.325 46.896 185.589 47.8938 183.397 49.56L182.361 49.1811L184.965 46.6064C185.146 46.4169 185.245 46.1649 185.241 45.9041C185.238 45.6433 185.131 45.3942 184.946 45.2097C184.76 45.0253 184.509 44.92 184.246 44.9164C183.983 44.9127 183.729 45.0108 183.538 45.19L180.521 48.1834L180.42 48.3327C179.716 47.967 179.032 47.5779 178.368 47.1653L180.943 44.6116C181.126 44.4226 181.228 44.1696 181.226 43.9069C181.224 43.6442 181.118 43.3929 180.93 43.207C180.743 43.0212 180.49 42.9158 180.225 42.9134C179.96 42.9111 179.705 43.012 179.515 43.1944L176.688 46.0078C176.085 45.5491 175.505 45.067 174.949 44.5613L177.925 41.6168C178.106 41.4272 178.205 41.1753 178.201 40.9144C178.197 40.6536 178.091 40.4045 177.905 40.2201C177.719 40.0357 177.468 39.9304 177.206 39.9267C176.943 39.923 176.689 40.0212 176.498 40.2004L173.53 43.154C173.015 42.6088 172.525 42.0373 172.062 41.4382ZM188.275 64.8562C187.654 64.3933 187.15 63.7936 186.803 63.1043C186.456 62.4151 186.276 61.6553 186.276 60.8849C186.276 60.1145 186.456 59.3547 186.803 58.6655C187.15 57.9763 187.654 57.3765 188.275 56.9136V64.8562ZM189.834 77.6669C189.973 77.5756 190.088 77.4513 190.167 77.3051C190.246 77.1589 190.287 76.9955 190.286 76.8296V74.2451L190.99 73.5474C191.131 73.4084 191.228 73.231 191.268 73.0375C191.307 72.8441 191.288 72.6433 191.213 72.4605C191.138 72.2778 191.009 72.1214 190.844 72.011C190.679 71.9007 190.485 71.8414 190.286 71.8407V69.266L190.99 68.5577C191.131 68.4188 191.228 68.2414 191.267 68.0481C191.307 67.8547 191.288 67.6541 191.212 67.4715C191.137 67.2889 191.009 67.1326 190.844 67.0223C190.679 66.912 190.485 66.8526 190.286 66.8517V64.2673L190.99 63.5695C191.131 63.4306 191.228 63.2531 191.268 63.0597C191.307 62.8662 191.288 62.6654 191.213 62.4827C191.138 62.2999 191.009 62.1435 190.844 62.0332C190.679 61.9228 190.485 61.8635 190.286 61.8628V59.2783L190.99 58.5806C191.131 58.4416 191.228 58.2642 191.268 58.0707C191.307 57.8773 191.288 57.6765 191.213 57.4937C191.138 57.311 191.009 57.1546 190.844 57.0442C190.679 56.9339 190.485 56.8746 190.286 56.8739V55.9752H190.346C190.641 55.9086 190.95 55.8754 191.271 55.8754C191.607 55.8754 191.949 55.8621 192.297 55.8356V76.8289C192.298 76.9933 192.34 77.1549 192.419 77.2994C192.498 77.4439 192.612 77.5668 192.75 77.6572L196.039 79.8425C195.659 81.1839 194.91 82.3934 193.875 83.335C192.84 84.2767 191.56 84.9129 190.181 85.1722C188.801 85.4314 187.375 85.3034 186.065 84.8025C184.755 84.3016 183.611 83.4477 182.763 82.337L189.834 77.6669ZM196.3 77.6278L194.309 76.2909V73.846C194.901 74.2901 195.386 74.8586 195.73 75.5107C196.075 76.1629 196.269 76.8825 196.3 77.6181M174.496 87.8053L180.762 83.6641C181.698 85.33 183.022 86.7498 184.624 87.8053H174.496ZM197.96 87.8053C199.561 86.7498 200.885 85.33 201.822 83.6641L208.087 87.8053H197.96ZM201.349 77.8274C201.335 79.1713 201.084 80.4319 200.595 81.6092L200.625 81.649C200.578 81.702 200.541 81.7553 200.514 81.8088C199.504 84.097 197.666 85.9263 195.363 86.935C193.059 87.9437 190.458 88.0586 188.073 87.2568C188.301 87.2834 188.536 87.2996 188.777 87.3057C190.934 87.3021 193.027 86.5745 194.714 85.2412C196.401 83.908 197.584 82.0475 198.07 79.9625L198.1 79.853L198.161 79.5739V79.4636C198.241 79.0645 198.288 78.6654 198.302 78.2663L199.046 77.5378C199.233 77.3509 199.338 77.098 199.338 76.8345C199.338 76.5709 199.233 76.3181 199.046 76.1312C198.917 76.0065 198.756 75.9185 198.581 75.8764C198.406 75.8343 198.223 75.8397 198.051 75.8918C197.807 75.0764 197.415 74.3122 196.894 73.6367L197.034 73.546C197.222 73.3469 197.319 73.1111 197.326 72.8385C197.336 72.4296 197.216 72.3193 197.034 72.1302C196.84 71.9527 196.585 71.8542 196.32 71.8542C196.056 71.8542 195.801 71.9527 195.607 72.1302L195.516 72.2698C195.14 71.9804 194.736 71.7295 194.309 71.5211V68.3184C196.349 68.9549 198.131 70.22 199.397 71.93C200.663 73.6399 201.347 75.7057 201.349 77.8274ZM215.409 27.938C215.261 31.5813 214.273 35.1425 212.521 38.3477C210.769 41.5529 208.299 44.3169 205.302 46.4271C206.636 43.0826 206.712 39.3733 205.515 35.978C204.318 32.5827 201.929 29.7285 198.784 27.938H215.409ZM203.16 13.5797L204.065 12.6817C204.171 12.593 204.258 12.4836 204.319 12.3601C204.381 12.2367 204.416 12.102 204.422 11.9645C204.429 11.827 204.406 11.6897 204.357 11.5612C204.307 11.4326 204.231 11.3157 204.134 11.2177C204.036 11.1197 203.919 11.0427 203.791 10.9917C203.662 10.9406 203.524 10.9166 203.385 10.921C203.246 10.9255 203.11 10.9584 202.985 11.0176C202.86 11.0769 202.748 11.1612 202.657 11.2652L201.752 12.1528L200.867 11.185L200.223 10.5068L201.058 9.68831C201.238 9.49873 201.337 9.24676 201.334 8.98595C201.33 8.72514 201.224 8.47604 201.038 8.2916C200.852 8.10716 200.601 8.00192 200.338 7.99823C200.075 7.99454 199.821 8.09271 199.63 8.27187L198.815 9.08963C198.306 8.67098 197.619 8.29513 196.754 7.96206L197.035 7.69273C197.216 7.50315 197.315 7.25119 197.311 6.99037C197.307 6.72956 197.201 6.48047 197.015 6.29603C196.829 6.11159 196.578 6.00634 196.315 6.00266C196.052 5.99897 195.798 6.09714 195.607 6.27629L194.602 7.27408L194.561 7.33339C193.636 7.13383 192.65 7.03336 191.695 7.00475L191.996 6.69494C192.103 6.6063 192.189 6.49683 192.251 6.37341C192.312 6.25 192.347 6.1153 192.353 5.9778C192.36 5.84029 192.338 5.70296 192.288 5.57443C192.238 5.4459 192.162 5.32895 192.065 5.23094C191.967 5.13293 191.851 5.05599 191.722 5.00494C191.593 4.95389 191.455 4.92984 191.316 4.93431C191.178 4.93877 191.041 4.97166 190.916 5.03089C190.791 5.09013 190.679 5.17443 190.588 5.27851L188.577 7.27408L188.476 7.41363C186.348 8.10412 184.497 9.45138 183.194 11.2589C181.892 13.0664 181.205 15.2395 181.235 17.4613C181.235 23.2387 185.75 27.938 191.292 27.938C194.579 27.9641 197.736 29.2176 200.133 31.4488C202.531 33.68 203.993 36.7252 204.229 39.9779C204.465 43.2306 203.457 46.4521 201.406 49.0008C199.356 51.5496 196.413 53.2385 193.163 53.7312C192.855 53.7777 192.566 53.8107 192.298 53.8303C191.963 53.8572 191.628 53.874 191.292 53.8805C190.91 53.8805 190.542 53.9138 190.186 53.9803L190.065 53.9901C189.683 54.0566 189.318 54.1531 188.969 54.2796H188.949L188.929 54.2894C187.622 54.7562 186.484 55.5957 185.658 56.7024C184.831 57.8092 184.353 59.1337 184.283 60.5093C184.213 61.885 184.555 63.2505 185.265 64.434C185.976 65.6175 187.023 66.5662 188.275 67.1608V70.4138L188.104 70.3642C188.209 70.2103 188.268 70.0305 188.275 69.8451C188.272 69.6498 188.212 69.4596 188.101 69.2981C187.991 69.1366 187.835 69.0109 187.653 68.9365C187.47 68.8621 187.27 68.8424 187.077 68.8798C186.884 68.9171 186.706 69.0099 186.565 69.1467L186.133 69.5653C185.449 69.2062 184.812 68.7838 184.222 68.2982L184.966 67.56C185.147 67.3704 185.246 67.1184 185.242 66.8576C185.238 66.5968 185.132 66.3477 184.946 66.1633C184.76 65.9788 184.509 65.8736 184.246 65.8699C183.983 65.8662 183.73 65.9644 183.538 66.1435L182.794 66.8915C182.298 66.3063 181.869 65.6744 181.507 64.9957L182.955 63.5688C183.135 63.3792 183.234 63.1273 183.231 62.8665C183.227 62.6056 183.121 62.3565 182.935 62.1721C182.749 61.9877 182.498 61.8824 182.235 61.8787C181.972 61.8751 181.718 61.9732 181.527 62.1524L180.692 62.9897C180.437 62.1119 180.289 61.2041 180.249 60.2664L182.955 57.5723C183.06 57.4822 183.145 57.3716 183.204 57.2473C183.264 57.1231 183.297 56.9879 183.302 56.8503C183.306 56.7127 183.282 56.5757 183.23 56.4479C183.179 56.3201 183.101 56.2042 183.003 56.1075C182.904 56.0109 182.786 55.9355 182.656 55.8863C182.527 55.837 182.388 55.8149 182.25 55.8212C182.111 55.8276 181.975 55.8624 181.851 55.9233C181.727 55.9843 181.616 56.0701 181.527 56.1754L180.601 57.0825C181.221 54.7374 182.606 52.6618 184.54 51.1799C186.474 49.698 188.849 48.8931 191.292 48.8909C193.847 48.8909 196.12 47.6942 197.608 45.8487C197.763 45.8022 197.907 45.7221 198.041 45.6086L200.052 43.6131C200.146 43.5203 200.221 43.41 200.272 43.2884C200.323 43.1669 200.349 43.0365 200.349 42.9049C200.349 42.7732 200.323 42.6428 200.272 42.5213C200.221 42.3997 200.146 42.2894 200.052 42.1966C199.949 42.0972 199.826 42.0209 199.691 41.9727C199.555 41.9246 199.411 41.9058 199.268 41.9175C199.411 40.8203 199.322 39.7055 199.006 38.6444L199.046 38.6234L200.052 37.6257C200.233 37.4361 200.332 37.1841 200.328 36.9233C200.324 36.6625 200.218 36.4134 200.032 36.2289C199.846 36.0445 199.595 35.9393 199.332 35.9356C199.07 35.9319 198.816 36.0301 198.624 36.2092L198.122 36.7088C197.723 36.0717 197.235 35.4939 196.673 34.9923L198.041 33.6352C198.221 33.4456 198.32 33.1937 198.316 32.9328C198.313 32.672 198.207 32.4229 198.021 32.2385C197.835 32.0541 197.584 31.9488 197.321 31.9451C197.058 31.9414 196.804 32.0396 196.613 32.2188L195.004 33.825C194.247 33.4365 193.432 33.1704 192.59 33.0365L194.018 31.6396C194.198 31.45 194.297 31.1981 194.294 30.9373C194.29 30.6765 194.184 30.4274 193.998 30.2429C193.812 30.0585 193.561 29.9532 193.298 29.9495C193.035 29.9459 192.781 30.044 192.59 30.2232L189.945 32.8572C189.026 32.7707 188.131 32.6044 187.26 32.3583L188.99 30.6418C189.174 30.4528 189.275 30.1997 189.273 29.937C189.271 29.6743 189.164 29.4231 188.977 29.2373C188.79 29.0516 188.536 28.9463 188.272 28.9441C188.007 28.9418 187.752 29.0429 187.561 29.2254L185.55 31.221C185.434 31.3412 185.35 31.4889 185.308 31.6501C184.557 31.3175 183.833 30.9184 183.136 30.4527L184.966 28.6456C185.147 28.456 185.246 28.204 185.242 27.9432C185.238 27.6824 185.132 27.4333 184.946 27.2489C184.76 27.0644 184.509 26.9592 184.246 26.9555C183.983 26.9518 183.73 27.05 183.538 27.2291L181.527 29.2247C180.963 28.7326 180.437 28.2006 179.948 27.6289L181.949 25.6529C182.047 25.5609 182.126 25.4503 182.18 25.3276C182.234 25.205 182.263 25.0728 182.265 24.9388C182.267 24.8049 182.242 24.6719 182.191 24.5478C182.14 24.4237 182.065 24.3109 181.969 24.2162C181.874 24.1214 181.76 24.0467 181.635 23.9963C181.51 23.9459 181.376 23.9209 181.241 23.9228C181.106 23.9247 180.973 23.9534 180.849 24.0073C180.725 24.0612 180.614 24.1391 180.521 24.2365L178.731 26.0122C178.295 25.3302 177.912 24.6164 177.584 23.8771C177.712 23.8283 177.829 23.7534 177.926 23.6573L179.937 21.6618C180.118 21.4722 180.217 21.2202 180.213 20.9594C180.21 20.6986 180.104 20.4495 179.918 20.265C179.732 20.0806 179.481 19.9754 179.218 19.9717C178.955 19.968 178.701 20.0662 178.51 20.2453L176.85 21.9018C176.566 20.9372 176.374 19.9484 176.277 18.9482C176.518 18.9342 176.733 18.8412 176.92 18.6691L178.932 16.6735C179.028 16.5811 179.105 16.4706 179.158 16.3483C179.211 16.2261 179.239 16.0946 179.24 15.9616C179.242 15.8285 179.216 15.6966 179.165 15.5734C179.114 15.4502 179.04 15.3383 178.945 15.2442C178.85 15.1501 178.737 15.0757 178.613 15.0253C178.489 14.9749 178.356 14.9495 178.222 14.9506C178.088 14.9518 177.955 14.9794 177.832 15.0319C177.709 15.0844 177.597 15.1607 177.504 15.2564L176.256 16.5033C176.337 15.1529 176.575 13.8592 176.971 12.6224L178.932 10.6861C179.026 10.5933 179.101 10.483 179.152 10.3615C179.203 10.2399 179.229 10.1095 179.229 9.97787C179.229 9.8462 179.203 9.71584 179.152 9.59429C179.101 9.47273 179.026 9.3624 178.932 9.26965C178.844 9.18867 178.741 9.12435 178.63 9.07987C179.961 6.93021 181.822 5.15202 184.038 3.91268C186.253 2.67334 188.749 2.0136 191.292 1.99558C195.135 1.99558 197.538 3.47202 198.976 4.35049C199.338 4.58308 199.643 4.75938 199.892 4.87939C200.716 5.28827 201.923 5.59808 203.321 5.96649C205.674 6.56516 208.591 7.32362 210.844 8.81053C213.288 10.4272 214.464 12.5519 213.912 14.3681C213.703 15.0194 213.314 15.5583 212.744 15.9848L209.949 14.1386C209.84 14.0516 209.714 13.9881 209.579 13.9522C209.444 13.9163 209.303 13.9088 209.164 13.9301C209.026 13.9514 208.894 14.0011 208.776 14.0759C208.658 14.1508 208.558 14.2492 208.48 14.3649C208.403 14.4806 208.351 14.611 208.327 14.7478C208.304 14.8846 208.309 15.0248 208.343 15.1594C208.378 15.294 208.44 15.42 208.526 15.5295C208.612 15.6389 208.72 15.7294 208.843 15.795L210.462 16.8724C210.127 16.9259 209.771 16.9559 209.396 16.9624C207.143 16.9624 205.071 15.4357 203.16 13.5797Z" fill="#147506"/>
</svg>
