<svg width="205" height="86" viewBox="0 0 205 86" fill="none" xmlns="http://www.w3.org/2000/svg">
<g filter="url(#filter0_d_205_67)">
<path d="M0 67C0 73.0751 4.92487 78 11 78H167.478H189.89C198.141 78 203.455 69.2515 199.651 61.9289L170.558 5.92889C168.666 2.28596 164.902 0 160.797 0H11C4.92486 0 0 4.92487 0 11V39V67Z" fill="#B2D5FE"/>
<path d="M0.5 67C0.5 72.799 5.20101 77.5 11 77.5H167.478H189.89C197.766 77.5 202.838 69.1492 199.207 62.1594L170.115 6.1594C168.308 2.68205 164.716 0.5 160.797 0.5H11C5.201 0.5 0.5 5.201 0.5 11V39V67Z" stroke="black" stroke-opacity="0.1"/>
</g>
<defs>
<filter id="filter0_d_205_67" x="-4" y="0" width="208.904" height="86" filterUnits="userSpaceOnUse" color-interpolation-filters="sRGB">
<feFlood flood-opacity="0" result="BackgroundImageFix"/>
<feColorMatrix in="SourceAlpha" type="matrix" values="0 0 0 0 0 0 0 0 0 0 0 0 0 0 0 0 0 0 127 0" result="hardAlpha"/>
<feOffset dy="4"/>
<feGaussianBlur stdDeviation="2"/>
<feComposite in2="hardAlpha" operator="out"/>
<feColorMatrix type="matrix" values="0 0 0 0 0 0 0 0 0 0 0 0 0 0 0 0 0 0 0.25 0"/>
<feBlend mode="normal" in2="BackgroundImageFix" result="effect1_dropShadow_205_67"/>
<feBlend mode="normal" in="SourceGraphic" in2="effect1_dropShadow_205_67" result="shape"/>
</filter>
</defs>
</svg>
