<svg width="205" height="86" viewBox="0 0 205 86" fill="none" xmlns="http://www.w3.org/2000/svg">
<g filter="url(#filter0_d_205_61)">
<path d="M205 67C205 73.0751 200.075 78 194 78H37.5216H15.1104C6.85863 78 1.54492 69.2515 5.34906 61.9289L34.4415 5.92889C36.334 2.28596 40.0977 0 44.2029 0H194C200.075 0 205 4.92487 205 11V39V67Z" fill="#B2D5FE"/>
<path d="M204.5 67C204.5 72.799 199.799 77.5 194 77.5H37.5216H15.1104C7.2337 77.5 2.16153 69.1492 5.79276 62.1594L34.8852 6.1594C36.6917 2.68205 40.2843 0.5 44.2029 0.5H194C199.799 0.5 204.5 5.20101 204.5 11V39V67Z" stroke="black" stroke-opacity="0.1"/>
</g>
<defs>
<filter id="filter0_d_205_61" x="0.0956421" y="0" width="208.904" height="86" filterUnits="userSpaceOnUse" color-interpolation-filters="sRGB">
<feFlood flood-opacity="0" result="BackgroundImageFix"/>
<feColorMatrix in="SourceAlpha" type="matrix" values="0 0 0 0 0 0 0 0 0 0 0 0 0 0 0 0 0 0 127 0" result="hardAlpha"/>
<feOffset dy="4"/>
<feGaussianBlur stdDeviation="2"/>
<feComposite in2="hardAlpha" operator="out"/>
<feColorMatrix type="matrix" values="0 0 0 0 0 0 0 0 0 0 0 0 0 0 0 0 0 0 0.25 0"/>
<feBlend mode="normal" in2="BackgroundImageFix" result="effect1_dropShadow_205_61"/>
<feBlend mode="normal" in="SourceGraphic" in2="effect1_dropShadow_205_61" result="shape"/>
</filter>
</defs>
</svg>
