<svg width="25" height="25" viewBox="0 0 25 25" fill="none" xmlns="http://www.w3.org/2000/svg">
<mask id="mask0_10_24" style="mask-type:alpha" maskUnits="userSpaceOnUse" x="0" y="0" width="25" height="25">
<rect x="0.436371" y="0.30603" width="24" height="24" fill="#D9D9D9"/>
</mask>
<g mask="url(#mask0_10_24)">
<path d="M16.5364 13.606L15.0864 12.156C15.2364 11.3727 15.0114 10.6394 14.4114 9.95602C13.8114 9.27269 13.0364 9.00602 12.0864 9.15602L10.6364 7.70602C10.9197 7.57269 11.2072 7.47268 11.4989 7.40602C11.7905 7.33935 12.103 7.30602 12.4364 7.30602C13.6864 7.30602 14.7489 7.74352 15.6239 8.61852C16.4989 9.49352 16.9364 10.556 16.9364 11.806C16.9364 12.1394 16.903 12.4519 16.8364 12.7435C16.7697 13.0352 16.6697 13.3227 16.5364 13.606ZM19.7364 16.756L18.2864 15.356C18.9197 14.8727 19.4822 14.3435 19.9739 13.7685C20.4655 13.1935 20.8864 12.5394 21.2364 11.806C20.403 10.1227 19.2072 8.78519 17.6489 7.79352C16.0905 6.80185 14.353 6.30602 12.4364 6.30602C11.953 6.30602 11.478 6.33935 11.0114 6.40602C10.5447 6.47268 10.0864 6.57269 9.63637 6.70602L8.08637 5.15602C8.7697 4.87268 9.4697 4.66018 10.1864 4.51852C10.903 4.37685 11.653 4.30602 12.4364 4.30602C14.953 4.30602 17.1947 5.00185 19.1614 6.39352C21.128 7.78519 22.553 9.58935 23.4364 11.806C23.053 12.7894 22.5489 13.7019 21.9239 14.5435C21.2989 15.3852 20.5697 16.1227 19.7364 16.756ZM20.2364 22.906L16.0364 18.756C15.453 18.9394 14.8655 19.0769 14.2739 19.1685C13.6822 19.2602 13.0697 19.306 12.4364 19.306C9.9197 19.306 7.67804 18.6102 5.71137 17.2185C3.7447 15.8269 2.3197 14.0227 1.43637 11.806C1.78637 10.9227 2.22804 10.1019 2.76137 9.34352C3.2947 8.58519 3.90304 7.90602 4.58637 7.30602L1.83637 4.50602L3.23637 3.10602L21.6364 21.506L20.2364 22.906ZM5.98637 8.70602C5.50304 9.13935 5.06137 9.61435 4.66137 10.131C4.26137 10.6477 3.9197 11.206 3.63637 11.806C4.4697 13.4894 5.66554 14.8269 7.22387 15.8185C8.7822 16.8102 10.5197 17.306 12.4364 17.306C12.7697 17.306 13.0947 17.2852 13.4114 17.2435C13.728 17.2019 14.053 17.156 14.3864 17.106L13.4864 16.156C13.303 16.206 13.128 16.2435 12.9614 16.2685C12.7947 16.2935 12.6197 16.306 12.4364 16.306C11.1864 16.306 10.1239 15.8685 9.24887 14.9935C8.37387 14.1185 7.93637 13.056 7.93637 11.806C7.93637 11.6227 7.94887 11.4477 7.97387 11.281C7.99887 11.1144 8.03637 10.9394 8.08637 10.756L5.98637 8.70602Z" fill="#1C1B1F"/>
</g>
</svg>
