<svg width="24" height="25" viewBox="0 0 24 25" fill="none" xmlns="http://www.w3.org/2000/svg">
<mask id="mask0_10_18" style="mask-type:alpha" maskUnits="userSpaceOnUse" x="-1" y="0" width="25" height="25">
<rect x="-0.00840759" y="0.795532" width="24" height="24" fill="#D9D9D9"/>
</mask>
<g mask="url(#mask0_10_18)">
<path d="M11.9916 16.7955C13.2416 16.7955 14.3041 16.358 15.1791 15.483C16.0541 14.608 16.4916 13.5455 16.4916 12.2955C16.4916 11.0455 16.0541 9.98303 15.1791 9.10803C14.3041 8.23303 13.2416 7.79553 11.9916 7.79553C10.7416 7.79553 9.67909 8.23303 8.80409 9.10803C7.92909 9.98303 7.49159 11.0455 7.49159 12.2955C7.49159 13.5455 7.92909 14.608 8.80409 15.483C9.67909 16.358 10.7416 16.7955 11.9916 16.7955ZM11.9916 14.9955C11.2416 14.9955 10.6041 14.733 10.0791 14.208C9.55409 13.683 9.29159 13.0455 9.29159 12.2955C9.29159 11.5455 9.55409 10.908 10.0791 10.383C10.6041 9.85803 11.2416 9.59553 11.9916 9.59553C12.7416 9.59553 13.3791 9.85803 13.9041 10.383C14.4291 10.908 14.6916 11.5455 14.6916 12.2955C14.6916 13.0455 14.4291 13.683 13.9041 14.208C13.3791 14.733 12.7416 14.9955 11.9916 14.9955ZM11.9916 19.7955C9.55826 19.7955 7.34159 19.1164 5.34159 17.758C3.34159 16.3997 1.89159 14.5789 0.991592 12.2955C1.89159 10.0122 3.34159 8.19137 5.34159 6.83303C7.34159 5.4747 9.55826 4.79553 11.9916 4.79553C14.4249 4.79553 16.6416 5.4747 18.6416 6.83303C20.6416 8.19137 22.0916 10.0122 22.9916 12.2955C22.0916 14.5789 20.6416 16.3997 18.6416 17.758C16.6416 19.1164 14.4249 19.7955 11.9916 19.7955ZM11.9916 17.7955C13.8749 17.7955 15.6041 17.2997 17.1791 16.308C18.7541 15.3164 19.9583 13.9789 20.7916 12.2955C19.9583 10.6122 18.7541 9.2747 17.1791 8.28303C15.6041 7.29137 13.8749 6.79553 11.9916 6.79553C10.1083 6.79553 8.37909 7.29137 6.80409 8.28303C5.22909 9.2747 4.02493 10.6122 3.19159 12.2955C4.02493 13.9789 5.22909 15.3164 6.80409 16.308C8.37909 17.2997 10.1083 17.7955 11.9916 17.7955Z" fill="#1C1B1F"/>
</g>
</svg>
