<svg width="45" height="43" viewBox="0 0 45 43" fill="none" xmlns="http://www.w3.org/2000/svg">
<path d="M6.13636 42.1049V22.3682L2.45455 25.2629L0 21.8945L6.13636 17.0525V10.5262H10.2273V13.842L22.5 4.21049L45 21.8945L42.5455 25.2103L38.8636 22.3682V42.1049H6.13636ZM10.2273 37.8944H20.4545V29.4734H24.5455V37.8944H34.7727V19.1577L22.5 9.52623L10.2273 19.1577V37.8944ZM6.13636 8.42097C6.13636 6.6666 6.73295 5.17539 7.92614 3.94733C9.11932 2.71927 10.5682 2.10524 12.2727 2.10524C12.8523 2.10524 13.3381 1.90349 13.7301 1.49999C14.1222 1.09648 14.3182 0.596486 14.3182 0H18.4091C18.4091 1.75437 17.8125 3.24558 16.6193 4.47364C15.4261 5.7017 13.9773 6.31573 12.2727 6.31573C11.6932 6.31573 11.2074 6.51748 10.8153 6.92099C10.4233 7.32449 10.2273 7.82449 10.2273 8.42097H6.13636Z" fill="white"/>
</svg>
