<svg width="205" height="86" viewBox="0 0 205 86" fill="none" xmlns="http://www.w3.org/2000/svg">
<g filter="url(#filter0_d_187_165)">
<path d="M0 11C0 4.92487 4.92487 0 11 0H167.478H189.89C198.141 0 203.455 8.7485 199.651 16.0711L170.558 72.0711C168.666 75.714 164.902 78 160.797 78H11C4.92486 78 0 73.0751 0 67V39V11Z" fill="#B2D5FE"/>
<path d="M0.5 11C0.5 5.20101 5.20101 0.5 11 0.5H167.478H189.89C197.766 0.5 202.838 8.85084 199.207 15.8406L170.115 71.8406C168.308 75.3179 164.716 77.5 160.797 77.5H11C5.201 77.5 0.5 72.799 0.5 67V39V11Z" stroke="black" stroke-opacity="0.1"/>
</g>
<defs>
<filter id="filter0_d_187_165" x="-4" y="0" width="208.904" height="86" filterUnits="userSpaceOnUse" color-interpolation-filters="sRGB">
<feFlood flood-opacity="0" result="BackgroundImageFix"/>
<feColorMatrix in="SourceAlpha" type="matrix" values="0 0 0 0 0 0 0 0 0 0 0 0 0 0 0 0 0 0 127 0" result="hardAlpha"/>
<feOffset dy="4"/>
<feGaussianBlur stdDeviation="2"/>
<feComposite in2="hardAlpha" operator="out"/>
<feColorMatrix type="matrix" values="0 0 0 0 0 0 0 0 0 0 0 0 0 0 0 0 0 0 0.25 0"/>
<feBlend mode="normal" in2="BackgroundImageFix" result="effect1_dropShadow_187_165"/>
<feBlend mode="normal" in="SourceGraphic" in2="effect1_dropShadow_187_165" result="shape"/>
</filter>
</defs>
</svg>
