<svg width="205" height="86" viewBox="0 0 205 86" fill="none" xmlns="http://www.w3.org/2000/svg">
<g filter="url(#filter0_d_205_68)">
<path d="M205 11C205 4.92487 200.075 0 194 0H37.5216H15.1104C6.85863 0 1.54491 8.7485 5.34906 16.0711L34.4415 72.0711C36.334 75.714 40.0976 78 44.2029 78H194C200.075 78 205 73.0751 205 67V39V11Z" fill="#B2D5FE"/>
<path d="M204.5 11C204.5 5.20101 199.799 0.5 194 0.5H37.5216H15.1104C7.2337 0.5 2.16151 8.85084 5.79276 15.8406L34.8852 71.8406C36.6917 75.3179 40.2842 77.5 44.2029 77.5H194C199.799 77.5 204.5 72.799 204.5 67V39V11Z" stroke="black" stroke-opacity="0.1"/>
</g>
<defs>
<filter id="filter0_d_205_68" x="0.0956421" y="0" width="208.904" height="86" filterUnits="userSpaceOnUse" color-interpolation-filters="sRGB">
<feFlood flood-opacity="0" result="BackgroundImageFix"/>
<feColorMatrix in="SourceAlpha" type="matrix" values="0 0 0 0 0 0 0 0 0 0 0 0 0 0 0 0 0 0 127 0" result="hardAlpha"/>
<feOffset dy="4"/>
<feGaussianBlur stdDeviation="2"/>
<feComposite in2="hardAlpha" operator="out"/>
<feColorMatrix type="matrix" values="0 0 0 0 0 0 0 0 0 0 0 0 0 0 0 0 0 0 0.25 0"/>
<feBlend mode="normal" in2="BackgroundImageFix" result="effect1_dropShadow_205_68"/>
<feBlend mode="normal" in="SourceGraphic" in2="effect1_dropShadow_205_68" result="shape"/>
</filter>
</defs>
</svg>
